<svg id="240e1e42-0788-42de-a2d4-03e53e19c656" data-name="Layer 1" xmlns="http://www.w3.org/2000/svg" width="186" height="210" viewBox="0 0 186 210"><defs><style>.\31 991de71-8d25-49e1-8411-6d96b16fac87{opacity:0.1;}.\32 12bfd1a-7fcd-4c97-8790-b46888e7c057{fill:#333;}</style></defs><title>artie</title><g class="1991de71-8d25-49e1-8411-6d96b16fac87"><path class="212bfd1a-7fcd-4c97-8790-b46888e7c057" d="M130.18,162.91H110.91a17.08,17.08,0,0,1-17-17.09V123.51h31.71v2.86h-3.79a2.51,2.51,0,0,0,0,5h6.3a2.51,2.51,0,0,0,2.5-2.51V121a2.51,2.51,0,0,0-2.5-2.51H91.37a2.51,2.51,0,0,0-2.5,2.51v24.82a22.1,22.1,0,0,0,22,22.12h14.17l-29.35,38a2.52,2.52,0,0,0,.44,3.53,2.5,2.5,0,0,0,3.51-.45L132.16,167A2.51,2.51,0,0,0,130.18,162.91Z"/><path class="212bfd1a-7fcd-4c97-8790-b46888e7c057" d="M49.08,119.22L21.84,146.56a2.52,2.52,0,0,0,0,3.55,2.5,2.5,0,0,0,3.54,0l27.24-27.34A2.51,2.51,0,0,0,49.08,119.22Z"/><path class="212bfd1a-7fcd-4c97-8790-b46888e7c057" d="M182,153.31L156.78,128a2.51,2.51,0,0,0-3.54,3.55l25.18,25.26a8.79,8.79,0,0,1,2.58,6.25v16.62a8.5,8.5,0,0,1-8.48,8.51H153.87a8.5,8.5,0,0,1-8.48-8.51V124a18.55,18.55,0,0,0-18.49-18.56H30.59A25.65,25.65,0,0,1,5,79.75V5h0.8A12.56,12.56,0,0,1,18.34,17.6V39.82a13,13,0,0,0,13,13h6.56a2.51,2.51,0,0,0,2.5-2.51V24.74h1.06A12.56,12.56,0,0,1,54,37.32V63.78a13,13,0,0,0,13,13h5.51A2.51,2.51,0,0,0,75,74.28V58.92h1.33A12.56,12.56,0,0,1,88.81,71.49V95.36a2.5,2.5,0,1,0,5,0V71.49a17.59,17.59,0,0,0-17.54-17.6H72.45a2.51,2.51,0,0,0-2.5,2.51V71.77h-3a8,8,0,0,1-8-8V37.32a17.59,17.59,0,0,0-17.54-17.6H37.87a2.51,2.51,0,0,0-2.5,2.51V47.81H31.31a8,8,0,0,1-8-8V17.6A17.59,17.59,0,0,0,5.81,0H2.5A2.51,2.51,0,0,0,0,2.51V79.75a30.67,30.67,0,0,0,30.59,30.69H126.9A13.52,13.52,0,0,1,140.39,124v55.75a13.52,13.52,0,0,0,13.49,13.53h18.64A13.52,13.52,0,0,0,186,179.73V163.11A13.79,13.79,0,0,0,182,153.31Z"/><path class="212bfd1a-7fcd-4c97-8790-b46888e7c057" d="M171.71,181.43a2.51,2.51,0,0,0,2.5-2.51v-9a10.69,10.69,0,0,0-10.66-10.7H155a2.51,2.51,0,0,0,0,5h8.54a5.67,5.67,0,0,1,5.65,5.67v9A2.51,2.51,0,0,0,171.71,181.43Z"/><path class="212bfd1a-7fcd-4c97-8790-b46888e7c057" d="M80.54,118.48H62.21A2.51,2.51,0,0,0,59.7,121v3.54a10,10,0,0,0,10,10h7.19a2.51,2.51,0,0,0,0-5H69.69a5,5,0,0,1-5-5v-1H80.54A2.51,2.51,0,0,0,80.54,118.48Z"/></g></svg>