<svg id="173ede9b-6bb1-41cb-b6f6-b47137c0dd86" data-name="Layer 1" xmlns="http://www.w3.org/2000/svg" xmlns:xlink="http://www.w3.org/1999/xlink" width="1506" height="590" viewBox="0 0 1506 590"><defs><style>.\35 108d18e-f310-44a9-baaf-d03661ce5e60{opacity:0.2;}.c02f43ef-f1df-4072-a514-edc616eb3212{fill:#d8e7ea;}.\32 f825b6a-1fa3-457e-b099-6608634c2de0{fill:#959536;}.\38 7718b5a-c620-4e7c-a8ac-cfeae6fe7510{fill:none;}.\31 2141fa7-0b22-4648-978c-e0def2987c43,.\32 851e403-d68b-4eb3-bab8-79f50798902b,.\37 2885c64-cb3d-458f-8715-b2ab6083b67d,.\38 5105dec-3529-49a6-8080-e91ade87d923{font-size:24.36px;}.\31 2141fa7-0b22-4648-978c-e0def2987c43,.\32 851e403-d68b-4eb3-bab8-79f50798902b,.\36 a2af364-aea3-4428-bd89-4ebdfd5a548f,.c1213b4b-994c-48c6-9cd1-632ebcf5aa80{fill:#fafafa;}.\31 2141fa7-0b22-4648-978c-e0def2987c43,.\31 709b269-e30f-4425-9ed1-6116e0b7541d,.\32 851e403-d68b-4eb3-bab8-79f50798902b,.\37 2885c64-cb3d-458f-8715-b2ab6083b67d{font-family:Roboto;}.\31 2141fa7-0b22-4648-978c-e0def2987c43,.\32 9ab917b-5766-480a-aa01-55c3fd87739c,.\37 2885c64-cb3d-458f-8715-b2ab6083b67d,.\38 5105dec-3529-49a6-8080-e91ade87d923{font-weight:700;}.\30 16c11f8-60ac-47cb-8f32-562bdbd86c8b,.c1213b4b-994c-48c6-9cd1-632ebcf5aa80{font-size:18.83px;font-family:Roboto Slab;}.\36 a8ba542-992c-4096-b639-815902e3fb6c,.\37 2885c64-cb3d-458f-8715-b2ab6083b67d{white-space:pre;}.\38 5105dec-3529-49a6-8080-e91ade87d923{font-family:DIN;}.\38 e4eb895-5afc-4923-abca-58d472a08a23{fill:url(#f252706e-5c5b-4478-b046-8ccfac5d62b3);}</style><linearGradient id="f252706e-5c5b-4478-b046-8ccfac5d62b3" x1="775.72" y1="429.54" x2="916" y2="364.57" gradientUnits="userSpaceOnUse"><stop offset="0" stop-color="#b3b340" stop-opacity="0"/><stop offset="1" stop-color="#b3b340"/></linearGradient></defs><title>process-template</title><g class="5108d18e-f310-44a9-baaf-d03661ce5e60"><path class="c02f43ef-f1df-4072-a514-edc616eb3212" d="M966.81,518.14c-6.63.56-12.65-1.27-18.38-4.27-3.75-2-7.58-3.82-11.14-6.09a20.77,20.77,0,0,1-5.45-5.12q-6.1-8.3-11.72-16.94c-4.34-6.68-5.49-14.12-4.41-21.94,0.31-2.27.8-4.51,1.29-6.75s0.89-4.24-.34-6.36a2.85,2.85,0,0,1,.35-2.2A52,52,0,0,1,934.29,429c2.6-1.73,5.27-3.37,8-5,1.49-.88,2.66-1.68,1.51-3.66-0.72-1.24-.25-1.52,1.22-1.85a14,14,0,0,0,6.23-2.84c3.26-3,7.17-3.43,11.18-3.92,3.19-.38,6.37-1,9.58-1.14a19.38,19.38,0,0,1,6.47.83,49.38,49.38,0,0,1,14.44,7.3c4.29,3.12,8.28,6.36,11.1,10.87,3.32,5.3,6.65,10.58,7.91,16.88,0.92,4.59,2.43,9.07,3.09,13.69,0.76,5.23,1.69,10.53.65,15.87-0.24,1.23-.19,2.52-0.49,3.73a44.68,44.68,0,0,1-2,6.52,75.11,75.11,0,0,1-5.35,11.18c-1.46,2.29-3.9,4-6.14,5.71-3.26,2.43-7.13,4.16-10,6.95s-6.26,4-9.67,5.42A32.28,32.28,0,0,1,966.81,518.14ZM931,466.35a37.54,37.54,0,0,1,.8,5.2,26.25,26.25,0,0,0,3.83,13.39c3.28,5.44,6.24,11.05,11.1,15.39,3,2.67,6.3,3.84,10.1,3a106,106,0,0,0,13.45-3.75c9-3.33,16.6-8.66,21.81-17,0.39-.62,1-1.35.94-1.94-0.49-3.24,1.27-6,1.71-9.05,0.85-6,1.56-12.11.55-18.11a109.84,109.84,0,0,0-4.17-15.61c-0.57-1.75-2.55-3-3.43-4.7a20.52,20.52,0,0,0-8.62-8.74c-5.64-3.19-11.12-4.58-17.41-2.08-2.07.82-1.7,1-.42,2.19a4.52,4.52,0,0,1-.83,7.32,72.79,72.79,0,0,1-8.48,4.59c-5.73,2.36-10.09,6.51-14.59,10.49a7.64,7.64,0,0,0-2.3,3.3C933.51,455.56,931.23,460.67,931,466.35Z"/><path class="c02f43ef-f1df-4072-a514-edc616eb3212" d="M1109.85,418c-1.49,7.12-2.35,14.46-4.7,21.28-1.62,4.69-4.2,9.38-9.13,12.18-2.68,1.52-4.71,4.16-7.07,6.25a10.47,10.47,0,0,1-2.5,1.85c-4,1.78-7.93,3.54-12,5.1a29.75,29.75,0,0,1-5.72,1.28c-2.46.42-4.94,0.71-7.42,1a6.61,6.61,0,0,1-2.17.13c-6.91-1.51-13.76-2.89-19.89-7-4.74-3.17-9.45-6.21-12.56-11-3.43-5.34-7.06-10.64-9.7-16.38-2.16-4.72-4.24-9.73-4.05-15.18,0.06-1.66.6-3.31,0.59-5a36.17,36.17,0,0,1,5.14-19c0.51-.86,1-1.69-0.64-2-1.23-.22-0.72-1.1-0.25-1.62,1.47-1.63,3-3.25,4.55-4.77a53.45,53.45,0,0,1,4.3-3.65c2.12-1.63,4.1-3.15,2.59-6.37-0.55-1.18.45-1.25,1.39-.84,1.85,0.8,3.73,1.26,5.65.16a3.64,3.64,0,0,0,1.08-.52c4.84-6.33,6.72-5.57,14.1-4.39,2.25,0.36,4.37,1.41,6.62,1.84,3.36,0.65,6.77,1.05,10.17,1.5a27.9,27.9,0,0,1,13.37,5.83,91.46,91.46,0,0,1,11.66,10c3.74,4,6.65,8.8,10,13.17,2.3,3,3.32,6.38,4.47,9.85,0.67,2,2.07,3.82,1.39,6.18Zm-79.95,5.76c-0.49,3.41,1.49,7.3,2.79,11.34a24,24,0,0,0,13,14.86,14.19,14.19,0,0,0,6.62,1.29,27.78,27.78,0,0,0,13.91-4.16c4.08-2.66,8.45-4.88,12.43-7.66,2.22-1.55,4.47-3.41,4.49-6.7a8.13,8.13,0,0,1,1-4.28c2.44-3.64,2.63-7.85,3.37-11.89a10.88,10.88,0,0,0-.32-5.53,40.11,40.11,0,0,0-4.25-8.25,61.08,61.08,0,0,0-6.48-7.91c-4.15-4.36-8.45-8.6-14.49-10.36-3-.87-5.88-2.34-9.14-1.95a3,3,0,0,0-1.8.57,19.15,19.15,0,0,0-2.75,4.15c-2.2,5-6.89,7.89-10.25,11.9-1.66,2-4,3.61-5,5.85C1030.36,410.56,1029.76,416.6,1029.91,423.74Z"/><path class="c02f43ef-f1df-4072-a514-edc616eb3212" d="M1015.91,515.79a25.75,25.75,0,0,1,3.42-14.26c1-1.87,1.64-3.94,2.6-5.85a6.12,6.12,0,0,1,1.7-1.41,7.74,7.74,0,0,0,1.07-1c1.16-1.42,2.19-3,3.47-4.26a4.27,4.27,0,0,1,2.36-.85c1.91-.27,2.13-0.6,1.21-2.28s-0.27-3.6,1.47-4a1.84,1.84,0,0,1,1.1.25,4,4,0,0,0,5.05-.86,8,8,0,0,1,2.61-1.94q8.07-3.37,16.22-6.53a11.64,11.64,0,0,1,8.28.16c5.77,2,11.53,4.07,17.24,6.27a10.11,10.11,0,0,1,3.82,2.64c2.67,3,5.6,6,7.52,9.51a40.4,40.4,0,0,1,3.6,10.89c1.54,7.1,1.12,14.33.4,21.49a97.7,97.7,0,0,1-2.18,12.48c-0.88,3.73-3.21,6.47-6.25,9s-6.12,5.12-9.93,6.09c-6.45,1.63-12.77,3.65-19.53,4.27-4.39.4-8.43-.63-12.65-0.76a6.85,6.85,0,0,1-2.38-.73,59.51,59.51,0,0,1-19.63-13.64,39.74,39.74,0,0,1-8.11-13.09A38.44,38.44,0,0,1,1015.91,515.79Zm66.33-2.76c0-9.33-.14-11-2.67-14.78-1.73-2.56-3.67-5.31-6.19-6.91-3.37-2.14-7.37-3.31-11.15-4.79-1.92-.75-3.72-0.27-5.72.37-3.15,1-4.9,3.35-6.85,5.6-1.49,1.72-2.6,4-4.43,5.16a61.11,61.11,0,0,0-6.48,5,22.79,22.79,0,0,0-6.95,10.35,25,25,0,0,0-.15,16.17,6.7,6.7,0,0,0,1.64,2.62c3.16,3.19,6.3,6.4,9.64,9.39a11.27,11.27,0,0,0,9.31,2.65c6-.73,11.8-2.58,17.55-4.34,2.74-.84,5.32-2.45,6.22-5.65a19,19,0,0,1,1.68-4.9A32.75,32.75,0,0,0,1082.24,513Z"/><path class="c02f43ef-f1df-4072-a514-edc616eb3212" d="M1137.45,502.53c-5.78.22-10.69-2.24-15.23-5.18-7.13-4.61-12.69-10.68-15-19.13a56.06,56.06,0,0,1-1-6.16,8.72,8.72,0,0,0-.23-0.88,4.21,4.21,0,0,0-.32.76c-0.27,1.29-.51,2.58-0.76,3.88-0.06.29-.15,0.58-0.22,0.87l-0.43-.77a13.71,13.71,0,0,1-1.18-11.56c1.33-3.89,2.18-8.13,6-10.78a27.82,27.82,0,0,0,4.73-4.56c2.32-2.63,5.31-3.77,8.62-4.54,3.8-.88,7.85-1.1,11.11-3.66a0.72,0.72,0,0,1,.29-0.12c5.11-1.09,10.22-3,15.06,1a27,27,0,0,0,5.35,3.18c5.6,2.75,8.28,8,11.46,12.91a21.41,21.41,0,0,1,3.66,10.83,10.72,10.72,0,0,0,.43,2.46c1.39,4.77.29,9.3-1.22,13.8a3.22,3.22,0,0,1-.6,1.09c-4.17,4.71-8.59,9.13-14.55,11.59-3.36,1.38-6.69,2.85-10.13,4A34.89,34.89,0,0,1,1137.45,502.53Zm13.69-30.45c-0.18-6.6-1.73-11-5.93-16.17-2-2.41-3.29-2.6-6.1-1.12a6.08,6.08,0,0,1-2.34.44c-5,.36-9.08,3-10.86,7.14-1.88,4.36-3.7,9-3.11,14.29,0.5,4.5,1.88,8.33,4.82,11.46,2.14,2.27,5,3.89,8.39,2.28,3.67-1.73,7.38-3.4,10.9-5.4a6.06,6.06,0,0,0,2.52-3.44C1150.23,478.45,1150.6,475.24,1151.14,472.07Z"/><path class="c02f43ef-f1df-4072-a514-edc616eb3212" d="M1147.39,361.8c2.65,0.28,5.44.14,7.91,1,2.66,0.88,5.64,1.06,7.8,3.47,2.75,3.06,3.46,6.15,1.4,9.76a3.45,3.45,0,0,0,.1,4c3.08,4.56,3.57,9.24,2.5,14.82-0.84,4.38-3.7,7-5.59,10.47a78.67,78.67,0,0,1-7,10.68c-2.27,2.88-5.69,4.08-9.36,4.13a21.54,21.54,0,0,1-14.3-5.45,32.79,32.79,0,0,1-11.86-20c-0.76-4.4.7-8.46,1.75-12.59,0.14-.54.18-1.11,0.26-1.66-0.53.46-1.43,0.87-1.51,1.4a9.65,9.65,0,0,1-2.46,4.53,2.64,2.64,0,0,1-.64.44,2.82,2.82,0,0,1-.2-0.59,3.68,3.68,0,0,1,0-1.25c0.87-3.43,1.74-6.85,2.69-10.26,0.7-2.49,3-3.64,4.87-4.83,3.65-2.28,7.54-4.17,11.39-6.1a10.58,10.58,0,0,1,3.58-1c2.89-.3,5.8-0.44,8.7-0.64Zm5.08,27.87c-1.18-3.28-2.34-6.38-3.42-9.52-0.67-1.94-2-2.1-3.62-1.49-2.26.87-3.57,3.36-6.21,3.69-0.29,0-.46.87-0.72,1.32a18.26,18.26,0,0,1-1.28,2.06c-4.71,6-5.06,12.55-2.22,19.39,0.95,2.28,2.4,2.77,4.54,1.62a9.76,9.76,0,0,0,2.62-2.17c2.75-3.14,5.56-6.24,8.06-9.58C1151.32,393.51,1151.72,391.5,1152.47,389.67Z"/></g><g class="5108d18e-f310-44a9-baaf-d03661ce5e60"><path class="c02f43ef-f1df-4072-a514-edc616eb3212" d="M1507.44,314.22c-0.77-1-.6-2.72-0.94-4.09a7.62,7.62,0,0,0-1.06-3c-2-2.36-4.15-4.54-6.2-6.82-1.28-1.43-2.21-3.53-3.78-4.24-2.29-1-3.56-2.82-5-4.55-0.92-1.15-1.63-1.06-2.78-.54-1.55.7-3.19,1.62-4.81,1.65-4.27.07-8.54-.31-12.82-0.49-4.95-.2-9.89-0.49-14.84-0.5-1.15,0-3.17.78-3.31,1.5-0.61,3.06-3,2.56-4.81,2.62-6.94.23-13.89,0.11-20.83,0.27s-13.65.52-20.48,0.75a7.91,7.91,0,0,1-1.81-.36c0.39-.61.65-1.53,1.21-1.77a8,8,0,0,1,7.16.2c1.36,0.74,2.38,1,3.22-.57l0.43-.82a2.11,2.11,0,0,0-.81-0.39c-3.82.14-7.65,0.17-11.45,0.51-6.54.59-13.07,1.11-19.65,1.19-4,0-7.95.65-11.91,1a4,4,0,0,0-1.16.53,9,9,0,0,0,1.3.35c3,0.36,6.1.81,9.11-.23,1.41,1.62,2.56-.72,3.88-0.27,3.3,1.13,6.61-2.87,9.9,0a0.66,0.66,0,0,0,.24-0.21c1.53-2.44,3.92-.59,5.85-1.1,0.41-.11,1.08.79,1.63,1.22a4.06,4.06,0,0,1-1.47,1c-2.2.21-4.41,0.23-6.62,0.38-9.7.63-19.4,1.32-29.1,1.9s-19.65,1.09-29.48,1.65c-2.54.14-5.09,0.3-7.62,0.56-6,.62-12.08,1.37-18.13,2-5.82.57-11.67,1-17.49,1.53-8,.77-16.05,1.67-24.09,2.43-5.93.56-11.88,0.92-17.81,1.49-5.72.54-11.42,1.28-17.13,1.85-5.25.53-10.52,0.89-15.77,1.43-8.12.83-16.22,1.8-24.35,2.59-7.29.71-14.61,1.23-21.9,1.91s-14.33,1.56-21.52,2.17c-5.56.47-11.16,0.59-16.72,1-6.14.45-12.25,1.15-18.39,1.57-3.61.25-7.27-.06-10.88,0.26a104.74,104.74,0,0,1-18.34.27,32.16,32.16,0,0,1-4.12-1,1.44,1.44,0,0,0-.64.4c0.47,0.15,2.21.36,0.08,0.56a68.57,68.57,0,0,1-8.26.08c-5.26-.14-10.51-0.33-15.77-0.56-2.05-.09-4.1-0.39-6.15-0.48-4.84-.22-9.72-0.07-14.52-0.63-9.48-1.11-18.42-4.29-27.18-7.94-3-1.26-6.39-2.19-8.46-5-3.67-4.88-5.33-10.6-6.17-16.56-0.74-5.22-1.3-10.47-2-15.7-0.16-1.25-.06-2.27,1.48-2.28,3.64,0,7.28.06,10.93,0.06,5.42,0,11.08,1,16.19-.25,7-1.71,14.11-2.45,21.11-4,3.11-.69,6.42-0.51,9.52-1.21,7.69-1.72,14.94-4.8,22.12-8,5.57-2.47,11-5.19,16.56-7.76,5-2.32,10.57-3.54,14.69-7.54,1.81-1.76,3.49-3.64,5.2-5.5,4-4.34,8.74-7.79,11.63-13.37,2.7-5.21,7.3-9.4,10.8-14.23a55.94,55.94,0,0,0,4.69-8.38c0.81-1.67,1.1-3.59,1.79-5.32,2-4.94,3.09-9.88,1.64-15.24-1.16-4.26-1.72-8.68-2.88-12.94a28.76,28.76,0,0,0-2.92-6.26,21.46,21.46,0,0,0-3.23-4.62c-3.21-3.27-4.84-8.32-10.2-9.23a2.39,2.39,0,0,1-.77-0.62c-5.93-4.72-12.85-4.73-19.87-4.11-3.6.32-7.1,1.26-10.82,0.67a23.68,23.68,0,0,0-8.1.18c-3.13.61-6.11,2-9.19,2.91-1.21.36-2.59,0.22-3.77,0.64-4.2,1.5-8.38,3.06-12.5,4.77-3.27,1.36-6.42,3-9.67,4.44a59.09,59.09,0,0,0-12.81,7.15c-1.73,1.34-3.5,2.64-5.32,3.84-0.77.5-2,.45-2.57,1.08-3.07,3.57-6.85,6.27-10.49,9.18-2.55,2-4.51,4.82-7,6.9a22.17,22.17,0,0,0-5.51,6.47c-1.37,2.51-4.08,3.75-5.29,6.45a28,28,0,0,1-4.35,6.59c-4.14,4.86-6.56,10.7-9.5,16.23-1.57,2.94-2.57,6.19-3.92,9.25-0.81,1.83-2,3.53-2.69,5.39a63.07,63.07,0,0,0-2.62,7.85c-0.39,1.57-1.26,1.6-2.43,1.42-0.55-.08-1.08-0.27-1.62-0.39-3-.71-6-1.79-9.07-2s-5.5-1.92-8.57-2.22c-4.31-.42-8.47-2.22-12.71-3.39a63,63,0,0,1-28.32-16.61,69.76,69.76,0,0,1-5.69-6.65,69.75,69.75,0,0,1-6.36,8.87,4.77,4.77,0,0,1-3.73,1.6c3.8,4.29,7.43,8.77,11.69,12.54,5.85,5.19,11.72,10.4,18.43,14.62,8.27,5.21,16.71,9.87,26.18,12.51,5.41,1.51,10.78,3.2,16.19,4.7,2,0.55,2.77,1.63,3,3.73,0.76,5.91,1.86,11.78,2.78,17.67a8.14,8.14,0,0,1,.12,3.59c-1.37,4.14-.26,7.47,2.7,10.46a16,16,0,0,1,2,3c2.13,3.5,4.16,7,7.91,9.17,1.62,0.92,3.41,1.69,4.95.75,1.27-.78,1.64-0.21,2.44.37,4.58,3.29,8.94,7,13.86,9.67a180.5,180.5,0,0,0,18.72,8.47c12.3,5,25.25,7.16,38.43,7.9,6,0.34,12.07.3,18.11,0.31,6.37,0,12.74-.09,19.11-0.24,4.66-.11,9.32-0.67,14-0.55,13.78,0.35,27.49-.67,41.22-1.5,5.08-.31,10.17-0.68,15.24-1.18,8.25-.81,16.49-1.79,24.74-2.63,8.93-.91,17.87-1.76,26.81-2.63,7.73-.75,15.46-1.45,23.18-2.24,5.36-.55,10.71-1.29,16.08-1.78,5.61-.51,11.24-0.82,16.86-1.24,5.19-.38,10.39-0.67,15.57-1.22,6.5-.68,13-1.74,19.46-2.35,9.16-.86,18.36-1.43,27.53-2.16,2.54-.2,5.09-0.37,7.59-0.8,1.9-.32,3.73-1.38,5.62-1.47,7.63-.36,15.28-0.34,22.91-0.71,7.94-.39,15.87-1,23.8-1.63,4.39-.33,8.81-0.52,13.13-1.25,2.79-.47,5.47,0,8.19-0.07,3-.12,6-0.54,9-0.51,7,0.06,13.95.39,20.92,0.44a27.76,27.76,0,0,0,5.15-.9c2.25-.42,4.52-1.28,6.75-1.19,6.53,0.27,13.07.8,19.58,1.45,5.31,0.53,10.79-1.15,16,1.49,1,0.48,3.2-.58,4.24-1.57A2.79,2.79,0,0,0,1507.44,314.22Zm-506.18-71a62.37,62.37,0,0,1,8.38-16.89c4.84-7.13,10.11-14,15.36-20.81,1.59-2.07,3.81-3.66,5.62-5.57,6.48-6.85,14.29-11.84,22.37-16.56,7.31-4.28,15.13-7.29,23-10.23a68.55,68.55,0,0,0,10.94-4.76c2.68-1.58,5.28-3.78,5.28-7.52a8,8,0,0,1,.19-1.24,4.65,4.65,0,0,1,1.49.48c0.4,0.31.51,1.07,0.92,1.29,0.89,0.46,2,1.08,2.85.93,1.47-.27,2.79-1.37,4.27-1.62a74.61,74.61,0,0,1,10.31-1.16,2.94,2.94,0,0,1,2.92,3c0.22,3.1.57,6.19,0.87,9.29,0.55,3.9-.57,7.43-2.05,11a70.54,70.54,0,0,1-19.23,26.59c-5.74,5-12,9.34-18.05,13.89a13,13,0,0,1-4.11,2c-6.31,1.81-11.94,5.06-17.72,8a15.14,15.14,0,0,1-2.19.74c-5.13,1.7-10.24,3.46-15.39,5.07a113,113,0,0,1-19.26,4.38c-4.48.58-9,1.19-13.44,1.77a9,9,0,0,1-2,.1C1001.24,245.36,1000.79,244.81,1001.26,243.27Zm483,52.2c-1.28,0-2.78,0-3.78,0v-0.09c-1,0-2.27,0-3.36,0a5,5,0,0,1-1.13-.31,6.87,6.87,0,0,1,.88-1.28,1,1,0,0,1,.92-0.07,3.18,3.18,0,0,0,4.25,0c0.35-.25,1.61.74,2.41,1.18A1.08,1.08,0,0,1,1484.28,295.47Z"/><path class="c02f43ef-f1df-4072-a514-edc616eb3212" d="M941.67,61.76c-1.13-8.08-4-15.37-7.36-22.59a5.27,5.27,0,0,0-.71-1.11c-2.54-3.06-5-6.19-7.65-9.16-4.72-5.31-10.12-9.58-17.35-11-3.36-.65-6.7-1.44-10-2.15a3.64,3.64,0,0,0-1.32-.07c-5,.84-10,1.72-15,2.55-1.6.27-3.44,1-4.78,0.52-6.58-2.47-11.47,1.24-16.1,4.56a42.5,42.5,0,0,0-8.92,9c-1.88,2.5-3.81,4.91-4.82,7.9-0.68,2-.15,4.55-2.71,5.72-0.25.12-.15,1-0.2,1.58a12,12,0,0,1-.22,2.64C842.15,57.48,842,65,841.83,72.5c0,1.08.43,2.25,0.12,3.21-1.73,5.52-1.21,11.13-.82,16.73,0.23,3.32.75,6.62,1.08,9.93,0.35,3.52.37,7.09,1,10.56,1.24,7.09,2.58,14.18,4.25,21.17,1.62,6.77,3,13.72,5.74,20.07,3.15,7.4,6.73,14.62,10.32,21.82,1-1.81,1.09-3.94,2.11-5.78a14,14,0,0,1,1.47-2q0.53-.63,1.12-1.21l0,0a5.59,5.59,0,0,1,3.31-6.27c-1.25-3-2.5-6-3.7-8.95-3.24-8.08-4.52-16.62-5.78-25.17-0.86-5.8-1.76-11.59-2.64-17.38a7.13,7.13,0,0,1-.06-1.33c0.44-11.19.76-22.38,1.39-33.56,0.2-3.49,1.24-6.94,1.93-10.4a5.36,5.36,0,0,1,.63-1.88,129,129,0,0,1,7.27-10.7c2.54-3.13,5.67-5.79,8.5-8.69a22.47,22.47,0,0,0,3-3.5A8.33,8.33,0,0,1,890.45,35c4.49,0.58,8.9.19,13.35,0.1a34.49,34.49,0,0,1,5.94.64c3.38,0.53,4.17,1.32,4.36,4.7,0.37,6.42.62,12.86,0.93,19.28l-0.42,0c0.22,4.77.73,9.55,0.57,14.31a115.4,115.4,0,0,1-1.59,15.53c-1.18,6.86-2.59,13.71-4.36,20.45a198.32,198.32,0,0,1-7.36,21.78A154,154,0,0,1,888,158.07c-1.93,3-3.16,6.53-4.89,9.72a68.5,68.5,0,0,1-3.85,5.92,2.28,2.28,0,0,1-.44.49,26.42,26.42,0,0,1-3.23,5.5c-2,2.77-3.87,6.22-6.24,9a7.07,7.07,0,0,1-.78,3.66c-2.92,6.19-8.31,10.74-11.12,17-0.52,1.16-1.66,2-2.48,3.06a12.59,12.59,0,0,0-1.24,1.86,42.23,42.23,0,0,1-2.63,5.06c-3.6,5-7.38,9.82-11,14.75-1.1,1.49-1.7,3.57-3.1,4.58-3.7,2.67-6,6.66-9.84,9.34-3.15,2.2-7,4.43-8.44,8.66a2,2,0,0,1-.76.6c-1.75,1.31-3.52,2.59-5.24,3.93a6.14,6.14,0,0,1-4.66,1.52c-1.21,1.12-2.44,2.19-3.72,3.2a1.13,1.13,0,0,1-.18,1.73q-3.6,2.42-7.33,4.62a2.67,2.67,0,0,1-.9,1.28c-0.34.3,0,1.28-.14,1.91a1.14,1.14,0,0,1-.82.69,8.61,8.61,0,0,0-4.78,1.67c-3.86,3.34-7.81,6.51-12.67,8.4-1.23.48-2.79,1.74-3,2.87-0.37,1.95-2,2.34-3.06,2.89s-2.81.38-3.2,2.2a0.64,0.64,0,0,1-.43.38c-2.69-1.13-3.8,1.46-5.53,2.45a38.65,38.65,0,0,0-4.47,3.61c-0.32.26-.84,0.25-1.2,0.48-2.07,1.33-5.25.57-6.51,3.59-0.19.45-1.85,0.47-2.8,0.38-1.47-.14-3.08-0.87-3.08,1.63-0.34,0-.69,0-1-0.1-0.75-.13-1.66-0.62-2.21-0.35-1.73.85-3.89,1.09-5.25,1.9-1.86,1.11-3.93,1.18-5.66,2.21-2.62,1.57-5.63,2.27-8.29,3.52-4.14,1.94-8.16.8-12.18,1s-8.18-.32-12.27-0.65c-4.31-.35-8.65-0.59-12.9-1.32-6-1-11.95-2.31-17.84-3.79-3.07-.77-5.92-2.38-9-3.29-6.31-1.88-9.67-6.83-12.35-12.16-1.06-2.1-.52-5-0.71-7.53-0.31-12.65,6.9-20.74,16.37-27.6a60.85,60.85,0,0,1,18.44-8.85c3.47-1,7-1.93,10.4-3.16a10.2,10.2,0,0,0,5.22-4.86c0.79-1.36-.49-2-0.74-2.92-0.18-.69-0.29-1.39-0.43-2.09a7.61,7.61,0,0,1,1.72,1.5,28.62,28.62,0,0,1,1.72,3.58,5.17,5.17,0,0,0,4.26,3.25c2.45,0.32,4.81,1.06,7.35-.48,1.28-.78,3.4-0.53,5.06-0.24,3.39,0.59,6.57,0,9.91-.56,3-.53,6.34,0,9.48.45a81.24,81.24,0,0,1,11.9,2.34c5.46,1.62,11.33,1.76,16.42,4.65,3.25,1.85,6.54,3.62,9.77,5.49,2.48,1.43,4.88,3,7.37,4.42,3,1.72,6.12,3.41,9.18,5.11a64.22,64.22,0,0,1,9.15-6.37l0.27-.19a1.05,1.05,0,0,1,.34-0.15c0.59-.33,1.16-0.67,1.76-1a1.11,1.11,0,0,1,1.34,1.74c-0.74.78-1.5,1.55-2.26,2.32q1.91-1.43,3.78-2.94c-1.59-1.08-3.18-2.17-4.78-3.23-7-4.67-14-9.37-21-14-2.3-1.5-4.87-2.59-7.23-4a73.8,73.8,0,0,0-21.92-8.26c-7.63-1.71-15.46-2.58-23.23-3.59-3.72-.48-7.5-1.43-11.28-0.15a1.4,1.4,0,0,1-1.23-.22c-1.1-2.2-3.25-.5-4.75-1.26-0.19-.1-1.06,1.15-1.62,1.78-0.46-.67-0.9-1.89-1.39-1.92a41.32,41.32,0,0,0-5.69.39,13.21,13.21,0,0,1-2.18.32c-2.65-.21-5.28-0.69-7.92-0.75a64.52,64.52,0,0,0-10.53.29c-3,.43-6,1.64-8.94,2.54s-5.88,1.85-8.82,2.77-5.13,2.85-7.81,4.1a38.07,38.07,0,0,0-8.91,5.86c-1.56,1.37-2.27,3.7-3.34,5.62l2.44-.46a10.67,10.67,0,0,1-1.33,2.53c-1.78,1.92-3.88,3.47-4.38,6.4-0.15.89-1.79,1.53-2.82,2.28a19.1,19.1,0,0,1-1.65,3.48,7,7,0,0,0-1.62,5.51c0.17,1.12-.43,2.36-0.69,3.55a2.2,2.2,0,0,1-.9-0.32,17.26,17.26,0,0,1-.22-3.4c0.13-1.83,1.15-3.6.34-5.48a0.88,0.88,0,0,0-.8-0.19,2.37,2.37,0,0,0-.92,1.28c0.06,3.32-1.39,6.46-.73,9.9,0.56,2.93.38,6,.55,9a3.9,3.9,0,0,0,.28.9c0.31-.25.62-0.49,0.93-0.75s0.66-.59,1-0.89a3.72,3.72,0,0,1,0,1.68,5.32,5.32,0,0,0,.16,5.85c2,2.73,2.89,6.17,5.61,8.45,0.3,0.25.07,1.12,0.09,1.7-2.47-.29-0.74,1.27-0.54,1.58a66.66,66.66,0,0,0,26.46,24c8.49,4.37,17.24,8,26.65,9.89,6.06,1.19,12.15,2.29,18.26,3.19a112.55,112.55,0,0,0,11.61,1c10.33,0.45,20.66.69,30.63-2.88,2.5-.89,5.1-1.5,7.64-2.28a110.49,110.49,0,0,0,11.35-3.64c9.42-4.07,18.81-8.09,27.17-14.36,6.41-4.8,13.78-8.23,20.27-13a1.09,1.09,0,0,1,.27-1.64l8.2-5.45a45.86,45.86,0,0,1,8.6-6.08,1.07,1.07,0,0,1,.72-0.11l0.06,0a0.94,0.94,0,0,1,1.18,0l0.21-.21A3.37,3.37,0,0,1,835,285c5.66-5.22,11.74-10,16.66-16,3.84-4.69,8.19-9,12.15-13.56,4.56-5.27,9-10.69,13.41-16.05a46.43,46.43,0,0,0,3.47-4.35c3.15-4.89,6.17-9.86,9.29-14.77a2.16,2.16,0,0,1,1.18-1.14,6.6,6.6,0,0,1,1.52-3.43,55.2,55.2,0,0,0,8.07-13.23,4.12,4.12,0,0,1,1.5-1.75c4.05-7.18,8-14.43,11.86-21.71,2.6-4.88,4.57-10.15,7.53-14.79,7.55-11.84,12.2-24.84,15.79-38.25,1.77-6.63,2.86-13.44,4.09-20.2,0.79-4.36,1.79-8.77,1.81-13.16A213.63,213.63,0,0,0,941.67,61.76Z"/><path class="c02f43ef-f1df-4072-a514-edc616eb3212" d="M925.41,361c-2.69-1.13-5.53-2-7.28-4.62-0.43-.63-0.71-1.37-1.17-2-1.19-1.52-1.66-1.45-2.91.05a3.12,3.12,0,0,1-1.72,1.16q-8.53,1-17.07,1.87c-2.1.21-4.29-.08-6.29,0.44-1.71.45-1.17-1.64-1.74-1.34-2.5,1.33-5.25,1.11-7.85,1.7-4.28,1-5.31.8-7-3-3.46-8-7-15.95-10.3-24A97.12,97.12,0,0,0,849.2,308.9c-3.71-4.86-7.32-9.8-10.95-14.72a11.58,11.58,0,0,1-1.46,1.36,1.11,1.11,0,0,1-1.57-1.57l0.33-.37a1,1,0,0,1-1.12.09,0.9,0.9,0,0,1,.07.18,0.89,0.89,0,0,1-.23,1.2l-0.74.62a41.54,41.54,0,0,1-8.67,8.72c2.47,3.34,4.94,6.68,7.16,10.17,2.65,4.16,4.62,8.75,6.87,13.16,2.9,5.68,6.08,11.25,8.59,17.1,2.25,5.24,3.83,10.77,5.56,16.22,0.48,1.51.87,3.18-1.49,4.05-6.83,2.52-13.53,5.4-20.38,7.88a160.49,160.49,0,0,0-42,22.61c-6.51,4.89-13.08,9.77-18.39,16.09-3.12,3.72-6.55,7.17-9.68,10.88a81,81,0,0,0-9.23,13.74,136.52,136.52,0,0,0-9.93,22,75.68,75.68,0,0,0-3.55,32.06c1,10,3.21,19.84,8.51,28.75,3.9,6.56,7.83,13.08,12.85,18.82,1.75,2,4.56,3.07,6.46,5,6.88,7,15.63,10.06,24.82,12.27A16.35,16.35,0,0,0,796,556c5.17-.39,10.41-0.23,15.45-1.91,2.48-.83,5.13-1.18,7.57-2.12s4.85-1.85,6.63-3.49a101.6,101.6,0,0,0,8.42-9.38c3.07-3.63,6-7.37,9-11,2.82-3.42,5.85-6.64,7.68-10.82a15.15,15.15,0,0,1,3.85-5.33,15.78,15.78,0,0,0,3.53-4.64c0.75-1.35,1.47-2.73,2.27-4.05a99.85,99.85,0,0,0,9.78-21.74c2.14-6.71,3-13.73,5.84-20.34,2.56-5.91,3.41-12.56,5-18.89a10.68,10.68,0,0,0,.36-2.29c0.24-9.22.57-18.43,0.65-27.65,0-1.35,0-2.69,0-4a31.68,31.68,0,0,1-6.55,1.61q-7.67,1.25-15.43,1.87,0,1.84,0,3.67a189.48,189.48,0,0,1-1.46,21.48A115.48,115.48,0,0,1,853,461.69c-2.48,6.84-5,13.67-7.07,20.63-2.5,8.49-6.71,16-11.45,23.39a108.33,108.33,0,0,1-10.21,13.72c-1.66,1.85-2.89,4.12-4.66,5.83-4.31,4.15-8.79,8.21-13.93,11.24-3.25,1.92-7.06,2.94-10.7,4.1a35.61,35.61,0,0,1-5.87.88,20.5,20.5,0,0,1-16.59-7.75c-4.24-5.14-8.47-10.26-10.13-16.92a125.12,125.12,0,0,1-3.34-19.89c-0.83-9.95,1.42-19.24,4.52-28.57,3.49-10.55,9.88-19.13,16.81-27.51,5.74-7,12.57-12.81,19.45-18.45s14.74-10,22.82-14c9.25-4.51,19-7.73,28.57-11.28,0.33-.12.66-0.44,1-0.56a1.24,1.24,0,0,1,1-1.61H855a1.27,1.27,0,0,1,.53.35c0.11,0,.22,0,0.33,0a1.86,1.86,0,0,1,1.59,0,7.93,7.93,0,0,1,2.31-.92c5.5-1.31,11.24-3.31,16.88-3.83a11.48,11.48,0,0,1,4.63.52c0-.27-0.09-0.54-0.12-0.81,1.31-.1,2.61-0.24,3.92-0.3a16.61,16.61,0,0,1,4.28-.07c5.47,1.2,10.91.31,16.37,0,4.05-.21,8.24-0.8,12.08,1a7.18,7.18,0,0,0,6.35.14,6.55,6.55,0,0,1,1.86-.34c5.75-.65,10.5-4.63,11.62-9.68C940,370.27,933.76,364.49,925.41,361Z"/></g><path class="2f825b6a-1fa3-457e-b099-6608634c2de0" d="M870.47,226.73h86.08a27.18,27.18,0,0,1,27.18,27.18V340a27.18,27.18,0,0,1-27.18,27.18H843.29a0,0,0,0,1,0,0V253.91A27.18,27.18,0,0,1,870.47,226.73Z"/><rect class="87718b5a-c620-4e7c-a8ac-cfeae6fe7510" x="273.51" y="1.04" width="1232.99" height="590"/><text class="2851e403-d68b-4eb3-bab8-79f50798902b" transform="translate(865.52 297.19)"><tspan class="29ab917b-5766-480a-aa01-55c3fd87739c">OPEN </tspan><tspan class="016c11f8-60ac-47cb-8f32-562bdbd86c8b" x="69.82" y="0">t</tspan><tspan class="016c11f8-60ac-47cb-8f32-562bdbd86c8b" x="76.72" y="0">h</tspan><tspan class="016c11f8-60ac-47cb-8f32-562bdbd86c8b" x="88.78" y="0">e</tspan><tspan class="29ab917b-5766-480a-aa01-55c3fd87739c"><tspan x="3.65" y="23.26">SENSES</tspan></tspan></text><text class="12141fa7-0b22-4648-978c-e0def2987c43" transform="translate(783.8 472.31)">DIG<tspan x="-10.21" y="23.26">DEEP</tspan></text><text class="c1213b4b-994c-48c6-9cd1-632ebcf5aa80" transform="translate(651.81 274.29)">what a<tspan x="60.03" y="0">r</tspan><tspan x="67.64" y="0">e </tspan><tspan x="82.44" y="0">y</tspan><tspan x="92.99" y="0">ou</tspan><tspan class="72885c64-cb3d-458f-8715-b2ab6083b67d"><tspan x="-3.43" y="23.26"> HEARING?</tspan></tspan></text><text class="c1213b4b-994c-48c6-9cd1-632ebcf5aa80" transform="translate(836.32 81.81)">what a<tspan x="60.03" y="0">r</tspan><tspan x="67.64" y="0">e </tspan><tspan x="82.44" y="0">y</tspan><tspan x="92.99" y="0">ou</tspan><tspan class="72885c64-cb3d-458f-8715-b2ab6083b67d"><tspan x="6.32" y="23.26"> SEEING?</tspan></tspan></text><text class="c1213b4b-994c-48c6-9cd1-632ebcf5aa80" transform="translate(1000.71 203.4)">what h<tspan x="61.81" y="0">a</tspan><tspan x="72.04" y="0">v</tspan><tspan x="82.43" y="0">e </tspan><tspan x="97.23" y="0">y</tspan><tspan x="107.78" y="0">ou</tspan><tspan class="85105dec-3529-49a6-8080-e91ade87d923"><tspan x="4.29" y="23.26"> </tspan><tspan class="1709b269-e30f-4425-9ed1-6116e0b7541d" x="9.94" y="23.26">IGNORED?</tspan></tspan></text><text class="12141fa7-0b22-4648-978c-e0def2987c43" transform="translate(1020.87 464.08)"><tspan class="6a8ba542-992c-4096-b639-815902e3fb6c"> UNM</tspan><tspan x="61.32" y="0">E</tspan><tspan x="75.54" y="0">T</tspan><tspan x="6.4" y="23.26">NEEDS</tspan></text><path class="8e4eb895-5afc-4923-abca-58d472a08a23" d="M937.63,381c2.39-10.69-3.87-16.47-12.22-20-2.69-1.13-5.53-2-7.28-4.62-0.43-.63-0.71-1.37-1.17-2-1.19-1.52-1.66-1.45-2.91.05a3.12,3.12,0,0,1-1.72,1.16q-8.53,1-17.07,1.87c-2.1.21-4.29-.08-6.29,0.44-1.71.45-1.17-1.64-1.74-1.34-2.5,1.33-5.25,1.11-7.85,1.7s-4.12.77-5.2-.17h0l-8,.67-12.8,4.33h0a2.36,2.36,0,0,1-1.84,2c-6.83,2.52-13.53,5.4-20.38,7.88a160.5,160.5,0,0,0-42,22.61c-6.51,4.89-13.08,9.77-18.39,16.09-3.12,3.72-6.55,7.17-9.68,10.88a76.6,76.6,0,0,0-7.23,10.24l27,7.42c5.64-6.69,12.26-12.39,18.94-17.86,6.88-5.64,14.74-10,22.82-14,9.25-4.51,19-7.73,28.57-11.28,1.55-.57,3.11-1.11,4.62-1.76a3,3,0,0,1,.6-0.18l12-3.68,12.73-1.31c1.31-.1,2.61-0.24,3.92-0.3a16.6,16.6,0,0,1,4.28-.07c5.47,1.2,10.91.31,16.37,0,4.05-.21,8.24-0.8,12.08,1a7.18,7.18,0,0,0,6.35.14,6.55,6.55,0,0,1,1.86-.34C931.75,390,936.5,386,937.63,381Z"/><path class="6a2af364-aea3-4428-bd89-4ebdfd5a548f" d="M621.86,125.21a4.12,4.12,0,0,0,1.64-.58c0.64-.72,1.4-0.45,2.11-0.64a8.42,8.42,0,0,0,3-1.69c1-.84,1.8-2,2.82-2.86a3.6,3.6,0,0,1,1.81-.47,3.72,3.72,0,0,1,.9.26C634.75,118,636.36,118,637,117a3.6,3.6,0,0,1,3-1.79,10.54,10.54,0,0,0,3.64-1.44,31.07,31.07,0,0,0,4.38-3.11c0.51-.43.62-1.34,1.08-2.45l4.16-1.09c3.63,3.82,3.63,3.82,2.92,6.36l1.32,0.13a22.23,22.23,0,0,0,.89,2.13c0.7,1.29-.51,4.55-2.16,5.45-1.22.67-2.62,0.83-3.36,2.46-0.37.82-2,1.08-3.1,1.55s-2.39,1-3.58,1.52a1,1,0,0,0-.54.4c-0.94,2.52-3.65,2.45-5.47,3.68-1.58,1.07-3.54,1.33-4.9,3.07-1.11,1.43-3.07,2.19-4.65,3.25a1.75,1.75,0,0,0-.45.24c-1.39,1.91-3.8,2.32-5.52,3.74a7,7,0,0,1-4.4,2c-1,0-1.91,1.68-1.82,3.08,0.08,1.19.14,2.39,0.25,3.58s0.72,2.25,2.12,2.21a9.41,9.41,0,0,0,3.17-.57c2.06-.82,4-1.9,6.07-2.75,2.4-1,4.87-1.85,7.29-2.82,1.95-.78,3.86-1.64,5.78-2.48a0.74,0.74,0,0,0,.42-0.44c0.42-3.46,3.68-2.81,5.72-3.9a1.28,1.28,0,0,1,1,.62,22.42,22.42,0,0,1,1.51,3.83c0.44,1.74.63,3.54,0.92,5.31a0.58,0.58,0,0,1,0,.34c-0.87,1.51-1.91,2.91-2.73,4.48-0.69,1.34-2.93,1.86-4.46,2.78-1.86,1.11-4.34,1-5.73,3.08a2.81,2.81,0,0,1-1.38,1c-2.69.88-5.41,1.66-8.1,2.54-0.8.26-1.52,1.06-2.28,1.06a29.56,29.56,0,0,1-7-.48c-4.31-1-7.61-3.89-10.56-7-0.78-.84-0.94-2.26-1.49-3.68h-0.61c-0.58-1.25-1.1-2.49-1.71-3.68-1-1.88-.51-3.89-0.52-5.82a100,100,0,0,1,.37-10.86c0.37-3.45,1.23-6.85,1.92-10.26q0.93-4.6,2-9.18a24.68,24.68,0,0,0,1-3.91,23.33,23.33,0,0,0-.63-4c-0.22-1.76-.72-3.54.59-5.18,0.6-.75,3.13-2.08,4-1.84,1.18,0.32,2.35.66,3.53,1a0.37,0.37,0,0,0,.16,0c1.6-.55,3.24-1,4.78-1.7,1-.44,1.73-1.35,2.68-1.86a12.07,12.07,0,0,1,2.27-.61,7.67,7.67,0,0,0,1.52-.61c1-.57,2-1.23,3.07-1.78a1,1,0,0,1,.93.11c1,1.42,1.52.78,2.17-.31a2.58,2.58,0,0,1,1.39-.94c1.49-.47,3-0.81,4.52-1.23a2.93,2.93,0,0,0,.92-0.4,44.67,44.67,0,0,1,3.83-2.73,11,11,0,0,1,2.47-.52c1.35-.55,2.72-1.08,4.05-1.67a5.43,5.43,0,0,0,1.75-1c1.38-1.45,4.48-1.35,5.21.24a1.81,1.81,0,0,1,.22.44c-1.14,1.15.67,2.24,0.12,3.44a3.09,3.09,0,0,0,1.73,1l0.1,1.29a2.62,2.62,0,0,0,.57.07c1.23-.15,1.11-1.21,1.18-2,0.34-3.51.49-7,.93-10.54,0.13-1,1-2,1.44-2.81l2.94,0.13c1,0,2,.11,2.31,1.33a0.59,0.59,0,0,0,.29.4c2.82,0.25,3.14,3.29,5.08,4.54,0.72,0.47,1.1.88,2,0a37,37,0,0,1,4.83-3.95,66.52,66.52,0,0,1,7.15-4.61,30.76,30.76,0,0,1,5.4-1.72,2.54,2.54,0,0,0,.94-0.33c1.42-1.28,2.86-.94,4.56-0.5,1.11,0.29,2.48-.39,3.74-0.61a7.88,7.88,0,0,1,5.75,1c1.61-.7,4.77.14,6,1.6a1.92,1.92,0,0,0,1,.78c1.72,0,2.42,1.47,3.47,2.41a5.46,5.46,0,0,0,.73.92c2.79,1.39,2,3.8,2.16,6.2,0.23,4.11-2.57,6.88-3.83,10.31a1.16,1.16,0,0,1-.73.68c-1.51.2-1.72,1.48-2.19,2.53a6,6,0,0,1-1.81,2.26,43.87,43.87,0,0,0-5.21,5.7c-1,1.15-1.83,2.39-2.69,3.63-0.58.83-1,1.78-1.6,2.59-1.25,1.66-2.61,3.24-3.86,4.91-1.55,2.06-3,4.18-4.55,6.25a13.07,13.07,0,0,0-1.38,1.79c-0.23.75-.46,1.49-0.68,2.24a4.94,4.94,0,0,0-.31,1.23c0,2-.05,1.91,1.7,1.15a5.89,5.89,0,0,1,2.2.15c1.72-1,3.57-2.9,6.36-1.79,1.29-2.47,4-2.53,6.08-3.62,1.82-.94,4.09-0.7,5.79-2.26,0.56-.51,1.94-0.12,3.38-0.15,1.48-.61,3.47-1.38,5.41-2.25,1.48-.66,2.84-1.75,4.37-2.07,2.08-.43,4.15-1.81,6.45-0.41a2.82,2.82,0,0,0,2.26-.17,10.2,10.2,0,0,1,5.64-1.43,1.17,1.17,0,0,0,.94-0.28c0.63-1.64,2-1.22,3-.89a14.88,14.88,0,0,1,3,1.65c0.52,0.31,1,.75,1.52,1a13,13,0,0,1,5,3.79,2.57,2.57,0,0,1,.32,1.61c-0.07.9-.34,1.78-0.47,2.68-0.26,1.76-1.46,2.41-3,2.74a11.54,11.54,0,0,0-1.71.65,6.86,6.86,0,0,1-4.6.59,10.09,10.09,0,0,0-6.56.16,27.77,27.77,0,0,1-3.68.64c-2.32.54-4.62,1.17-6.92,1.8-0.36.1-.64,0.48-1,0.59-1,.34-2.12.59-3.18,0.91-1.4.42-2.81,0.78-4.16,1.32-1.88.75-3.51,2-5.73,2.05-1.29,0-2.56,1-3.83,1.54-1.11.49-2.22,1-3.31,1.53-0.85.43-1.66,0.94-2.66,1.51-1.22-1.3-2.33.09-3.58,0.58-1.06.42-2.14,0.8-3.23,1.14a33.54,33.54,0,0,1-3.5,1,12,12,0,0,1-2.67.16,2,2,0,0,1-1.91-1.57c-0.23-.56-1.54-0.69-2.37-1-3.45-1.23-6.3-3-7.93-6.6-0.82-1.82-1.92-3.67-1.79-5.52,0.16-2.32-1-4.86.95-7,0.72-.81.74-2.18,1.3-3.17a90,90,0,0,1,9.61-14.12q3.5-4.11,7-8.2a7.81,7.81,0,0,1,.91-0.68,8.59,8.59,0,0,0,1.64-1.5c1.55-2.28,3-4.63,4.52-6.95A11.53,11.53,0,0,0,709,84.55c0.52-1.21-.06-1.92-1.37-1.66-2.09.41-4.19,0.85-6.25,1.4a23.17,23.17,0,0,0-2.21,1.1c-2.9,1.12-5.83,2.17-8.24,4.21a10.77,10.77,0,0,0-2.3,2.46,4.9,4.9,0,0,1-3.17,2c-2.27.7-4.41,1.32-6.66-.17-1-.65-1.53,0-1.62,1.13-0.08,1-.47,2-0.53,3a21.69,21.69,0,0,0,.14,3.34c0.33,3.45,1.28,7,.88,10.32-0.44,3.68.36,7.21,0.15,10.82a34.21,34.21,0,0,0,.54,4.52c0.28,3.57.38,7.15,0.77,10.71,0.23,2.11,1.08,4.15,1.29,6.26,0.31,3.18,1.3,6.49-.08,9.55-0.56,1.23-2.2,2-3.4,2.9a1,1,0,0,1-.94-0.17c-1.07-1.63-3-1.55-4.45-2.49a5.94,5.94,0,0,1-1.37-2,4,4,0,0,0-.33-1c-3.62-2.94-2.58-7.31-3.28-11.09-0.54-2.93-.41-6-0.63-9-0.08-1.08-.36-2.14-0.44-3.21-0.14-2-.31-4-0.27-6a66.17,66.17,0,0,0-.6-11.13,43.86,43.86,0,0,1-.13-6.45c0-1.79.1-3.58,0.15-5.37a0.86,0.86,0,0,0,0-.5c-2-1.68.07-3.58-.59-5.63a1.81,1.81,0,0,0-1.06.19,9.79,9.79,0,0,1-4.29,2.77,3.24,3.24,0,0,0-1.67,1.1c-1.25,1.94-3.24,2.83-5.16,3.73-3.23,1.51-6.56,2.83-9.86,4.19-0.71.29-1.51,0.38-2.23,0.66-1.56.6-2.8,2.22-4.77,1.48-1.89,2.08-4.79,2.47-6.92,4.17-1.11.89-2.1,2-3.85,1.79-0.37,0-1.16,1.47-1.31,2.34-0.56,3.17-.93,6.36-1.36,9.55A2.82,2.82,0,0,0,621.86,125.21Z"/><path class="6a2af364-aea3-4428-bd89-4ebdfd5a548f" d="M525.29,120.41c-0.17-1.16-.27-1.77-0.36-2.39a1.58,1.58,0,0,1-.09-0.83c1.64-1.58,1.06-4.24,3.1-5.77,1.8-1.35,3.12-3.34,4.66-5a22.69,22.69,0,0,1,2.27-2.3,3.55,3.55,0,0,1,1.51-.26c-0.73-1.75,1.07-2.32,2.21-3.09a18.55,18.55,0,0,1,4.1-1.88c0.38-.14,1,0.4,1.47.47,4.43,0.68,5.94,2.76,8.16,5.77,1.5,2,3.13,4,4.46,6.09,0.45,0.72.1,1.91,0.2,2.88s0.32,2.18.51,3.27a5.9,5.9,0,0,1,.37,1.64c-0.38,2.74.15,5.4,0.52,8.09a16.54,16.54,0,0,1-.53,8.36,2.33,2.33,0,0,0-.16,1.52c0.95,2.34-.14,4.48-0.69,6.62-0.26,1-1.16,1.89-1.9,3,0.79,2.21.78,2.2-1.72,4.07a2.61,2.61,0,0,0-.53,1c-0.31.66-.62,1.33-0.92,2a1.78,1.78,0,0,0-.29.76,5.58,5.58,0,0,1-2.35,5,0.88,0.88,0,0,0-.22.26c-1,1.94-1.85,3.93-2.91,5.81-1.27,2.25-2.73,4.39-4,6.61-1.17,2-3.05,3.4-3.92,5.63-0.43,1.1-1.53,1.94-2.32,2.91a2.27,2.27,0,0,0-.5.69,3.76,3.76,0,0,1-1.82,2.37c-2,1.26-3.74,3.08-5.77,4.39-0.56.36-1.77-.23-2.66-0.46-0.69-.18-1.4-0.76-2-0.67-1.48.22-2.22-.56-2.9-1.61s-1.41-2.2-2.13-3.29a0.93,0.93,0,0,0-.46-0.43c-2-.38-2.71-2.12-3.42-3.67-0.55-1.2-.77-2.4-1.94-3.39-0.81-.69-1-2.25-1.22-3.46-0.35-1.63-.52-3.3-0.77-5l-0.55-.3c-0.78.63-1.57,1.25-2.34,1.89a2.63,2.63,0,0,1-.26.42c-2.25.48-2.48,2.71-3.62,4.14-0.68.86-.7,0.87-1.55-0.08-0.35.85,0.36,2.35-1.45,2.35a1.23,1.23,0,0,0-.37.53,39.43,39.43,0,0,1-7.45,8.27,3.92,3.92,0,0,1-1.17.45,1.79,1.79,0,0,0-.91.41c-0.94,2.55-3.24,2.59-5.33,3l-0.53-1.68-0.49,0-0.19,2.16c-2.24-1-5.36.12-6.34-3.36-2.71.91-3.28-1.75-4.41-3.06a46.44,46.44,0,0,1-4.49-7.11,4.26,4.26,0,0,1-.35-1.91c-0.05-1.36,0-2.72,0-4.07,0-1.78-.39-3.5.52-5.3,0.49-1-.14-2.44-0.05-3.67a9.51,9.51,0,0,1,.74-2.74,22.71,22.71,0,0,0,1.31-2.72c0.41-1.7,1.73-3.32.7-5.22a0.49,0.49,0,0,1,.08-0.47c1.7-1,1.21-3.19,2.19-4.46,1.2-1.57,1.27-3.5,2.22-5.11a8.53,8.53,0,0,0,.57-2.39c1.11-.61,2.59-1,2.85-2.94,0.1-.78.91-1.47,1.43-2.18,0.88-1.21,1.74-2.44,2.68-3.6a9.82,9.82,0,0,1,1.66-1.27c0.59-4.26,4.49-4.51,8-5.59l1.81,1.52a1.3,1.3,0,0,0,.64.43c1.75-.25,2.37,1,3,2.2s1.37,2.18,2,3.27,0.46,1.87-.68,2.83a66.61,66.61,0,0,0-5.38,5.65,25.51,25.51,0,0,0-2.57,2.77c-0.88,1.28-1.45,2.75-2.26,4.08-1,1.64-2.1,3.21-3.13,4.82a9.65,9.65,0,0,0-1.1,1.92c-1.35,3.84-2.85,7.64-3.89,11.57a103.06,103.06,0,0,0-1.84,10.46,8.66,8.66,0,0,0,.3,2.16,26.13,26.13,0,0,0,3.21-1.94c1.33-1.1,2.48-2.4,3.77-3.54a9.89,9.89,0,0,1,2.38-1.65c2-.91,2.74-2.84,3.76-4.51a15.23,15.23,0,0,1,4.2-4,6.72,6.72,0,0,0,1.18-1.41c0.69-.93,1.37-1.87,2-2.82a4.3,4.3,0,0,0,.32-0.64c0.34-.7.53-1.87,1-2,2.36-.73,1.54-3.19,2.71-4.59s1.54-2.94,2.37-4.39a2.56,2.56,0,0,1,1.21-.31,2.6,2.6,0,0,1,1.59-2.94,1,1,0,0,0,.29-0.73c0-2.08,1.21-3.49,2.59-4.81a1.39,1.39,0,0,0,.47-0.46c0.87-4.17,3.35-7.71,4.54-11.76,0.63-2.14,3.26-2.87,5.23-1.79A10.44,10.44,0,0,0,525.29,120.41ZM546.55,135a23.83,23.83,0,0,0,2.54-2.71c0.56-.82,1.32-1.9-0.23-2.67a0.69,0.69,0,0,1-.28-0.58c0.3-1.7.64-3.4,1-5.1a5.57,5.57,0,0,0,.23-1.67c-0.33-2.53-.89-5-1.07-7.57a3,3,0,0,0-1.71-2.54,2.57,2.57,0,0,0-2.14.57c-1.16.93-2,2.33-3.22,3.11-2.5,1.59-2.67,4.53-4.24,6.64a1.56,1.56,0,0,0,.08.91,3.2,3.2,0,0,1,.22,1.09c-0.74,3.17-3.2,4.48-6.22,3.37a1.43,1.43,0,0,0-1.06,0,19.34,19.34,0,0,0-1.75,3.78c-0.47,1.67-.51,3.45-0.92,5.14-0.71,3-1.58,5.87-2.35,8.81a30.17,30.17,0,0,0-1.24,5.43c-0.21,3.17-.06,6.37-0.11,9.55,0,0.78-.34,1.55-0.37,2.33-0.11,2.25-.22,4.5-0.16,6.75a6.36,6.36,0,0,0,.91,2.1,6.17,6.17,0,0,0,1.45-.83,19,19,0,0,0,2.06-2.47c0.51-.73.81-1.52,1.92-1.69,0.38-.06.62-1,0.93-1.51a2.58,2.58,0,0,1,.78-1.14,5.19,5.19,0,0,0,3.11-4.48,1.45,1.45,0,0,1,.44-1c0.76-.78,1.59-1.51,2.68-2.52,0.68,0,.49,0,0.91-1.26,0.51-1.48,1.8-2.68,1.57-4.44,0,0,.22-0.1.27-0.19,0.29-.57.57-1.14,0.85-1.72a4.65,4.65,0,0,1,.89-1.71,5.37,5.37,0,0,0,1.9-3.19c0.34-1.23,1.24-2.32,1.48-3.55C546,138.3,547.8,136.77,546.55,135Z"/><path class="6a2af364-aea3-4428-bd89-4ebdfd5a548f" d="M352.5,204.27c0.46,0.89-.25,1.48-1.31,2.26s-1.28,2.08-2.06,3c-1.13,1.37-2.42,2.61-3.64,3.92a1.36,1.36,0,0,0-.46.65c1.07,2.51-2.11,2.77-2.4,4.55a0.7,0.7,0,0,1-.55.32c-1.26,0-2.53,0-3.79,0a0.54,0.54,0,0,1-.33-0.05c-1.53-1.6-4.09-1.82-5.26-4a8.44,8.44,0,0,0-2.16-1.79,23.07,23.07,0,0,0-.44,2.66,1.56,1.56,0,0,1-2.06,1.59c-1-.5-1.89,0-2.74-0.33a8.62,8.62,0,0,1-2.11-1.16c-0.55-.38-1-1.19-1.53-1.3-3.31-.61-3.65-3.46-4.46-5.86a8.9,8.9,0,0,1-.5-4.06c0.32-2-.45-4.1.24-6.11a0.82,0.82,0,0,0,0-.65c-2.2-2.71-1.37-5.65-.76-8.62a3.67,3.67,0,0,0-.21-2.64c-1.43-1.81-.3-3.64-0.36-5.44,0-.86.55-1.85,0.29-2.58a9.49,9.49,0,0,1,0-5.34,8.45,8.45,0,0,0-.35-4.52c-0.5-1.47.16-3.32,0.22-5,0.08-2.08.07-4.15,0.12-6.23a28.54,28.54,0,0,1,.22-5.13c0.4-1.94.26-3.91,0.65-5.79a9.21,9.21,0,0,0,.17-3.53c-0.24-1.41-.9-2.28-2.5-2.15a5.15,5.15,0,0,1-1.28-.13,21.16,21.16,0,0,0-1.11-3,3.74,3.74,0,0,1,2.43-5.53,3.67,3.67,0,0,0,3-3.69c0.23-3.57.29-7.15,0.44-10.73,0-.74.18-1.47,0.21-2.21a2,2,0,0,1,2.57-1.78,9.94,9.94,0,0,1,6,3.73,14.27,14.27,0,0,1,2.7,7.83c0.05,1.32,1.18,1.54,2.88,1.11a33.86,33.86,0,0,1,5.9-.89,27.52,27.52,0,0,1,5.69.09,38.86,38.86,0,0,1,6.47,1.51c2.47,0.79,4.86,1.81,7.26,2.78a8.67,8.67,0,0,1,1.53,1,3.43,3.43,0,0,0,1.09.78c3.15,0.38,4.41,3.36,6.72,4.89a20.25,20.25,0,0,1,3.75,3.5,17.76,17.76,0,0,1,1.41,2.59,5,5,0,0,0,1.18,1.28c0.67,0.52,1.45.7,0.65,2-0.34.52,0.6,1.93,1.06,2.88a3,3,0,0,1,.65,1.35,13.72,13.72,0,0,1,0,3.14c-0.24,1,.62,2.19-0.56,3.17-0.42.35-.2,1.49-0.22,2.27-0.06,2.2-.06,4.4-0.15,6.6a3,3,0,0,1-.54,1c-0.49.94-1.31,1.58-1,3,0.19,1-1,2.24-1.59,3.38a2.92,2.92,0,0,0-.51,1.21,2,2,0,0,1-1.25,2.34,2.43,2.43,0,0,0-.67,1.3,64.17,64.17,0,0,1-5.4,10.74,7.07,7.07,0,0,1-1.61,1.3c-0.74,1.7-.83,4.15-3.18,5.37a1.68,1.68,0,0,0-.78,1.32,3.87,3.87,0,0,1-3.89,4.3,2.73,2.73,0,0,0-1.15.57l1.31,0.87Zm-21.27,7.78c-1.74-1.61-.27-2.46.45-3.47a19.19,19.19,0,0,0,2.51-3.74,2.28,2.28,0,0,1,1.55-1.74,2.45,2.45,0,0,0,2.09-2.36,1.29,1.29,0,0,1,.55-1,3.23,3.23,0,0,0,1.92-2,1.67,1.67,0,0,1,1.18-.86c2.1-.31,2.81-1.82,3.49-3.54a15.18,15.18,0,0,1,1.69-2.83,17.91,17.91,0,0,1,2.09-2.78c1.17-1.16,2.42-2.2,2.59-4a0.57,0.57,0,0,1,.41-0.26c1.61-.21,1.34-1.65,1.79-2.65a23,23,0,0,1,1.23-2.22,3.1,3.1,0,0,0,.63-0.93c0.18-2.27,1.78-3.85,2.71-5.75s2.8-3.12,2.91-5.42a10,10,0,0,1,.74-2.37,28.14,28.14,0,0,0,.88-2.86c0.4-1.93.3-4.08,1.14-5.78a6.63,6.63,0,0,0,.32-4.72c-0.6-2.53-.73-5.28-2.46-7.45a13.39,13.39,0,0,0-2.34-2.71,16,16,0,0,0-3.69-1.69c-2-.75-3.82-2.05-6.07-1.84s-4.49-1-6.92-.17c-1.62.55-3.53,0.29-5.31,0.27s-3.72-.28-5.11,1.43a2.18,2.18,0,0,1-1.32.69c-1.6.19-2.07,1.37-2.25,2.63a48.62,48.62,0,0,0-.37,5.19q-0.14,4.49-.17,9c0,1.87.1,3.74,0.07,5.61a9.66,9.66,0,0,1-.4,2.52c-0.31,1.08-2,2.07-.07,3.22a1.51,1.51,0,0,1,0,1c-0.19,1.1-.79,2.28-0.56,3.27a23.5,23.5,0,0,1,.09,7.44c-0.1,1.25-.08,2.51-0.16,3.76a14.72,14.72,0,0,0-.26,2.51c0.21,1.83.8,3.62,0.87,5.45,0.16,4.27-.22,8.55.73,12.8a16.48,16.48,0,0,1,0,4.32A4.44,4.44,0,0,0,331.24,212.06Z"/><path class="6a2af364-aea3-4428-bd89-4ebdfd5a548f" d="M456.94,182.64c-0.52,1.48-1.07,3.37-1.87,5.16a6.93,6.93,0,0,1-1.84,2.06c-1.58,1.41-3.24,2.74-4.82,4.15-0.62.56-1.09,1.29-1.7,1.86-1.73,1.63-3.28,3.69-5.34,4.65a19.28,19.28,0,0,0-3.52,2.47c-1.07.82-2.73,0.5-3.34,2a16.06,16.06,0,0,1-1.36,2.47,1.41,1.41,0,0,1-.88.71c-2.3-.23-3.22,1.79-4.75,2.79a2.07,2.07,0,0,1-1.11.56,26.14,26.14,0,0,1-5.51-1.63c-1-.48-1.59-1.79-2.22-2.81a10.12,10.12,0,0,1-.89-2.3c-1-3.13-.59-3.93,2.47-5.16a1,1,0,0,0,.45-0.21c0.37-.56.65-1.18,1.06-1.71a16.13,16.13,0,0,1,1.44-1.45l2.84-.74-0.06-.85a18.1,18.1,0,0,0,3-1.18c1.55-1,3.36-1.83,4.38-3.24,1.3-1.81,3.31-2.52,4.74-4,0.34-.35.64-0.74,1-1.08s0.82-.75,1.25-1.11a3.56,3.56,0,0,0,.73-0.59c0.78-1.2,1.52-2.43,2.28-3.65l0.89,0.59a2.26,2.26,0,0,0,.19-0.52,7,7,0,0,1,0-1.17c0.49-2.12-1.41-4.17-3.7-4.26a7.51,7.51,0,0,1-3.26-1,10,10,0,0,0-5.06-1.68,2,2,0,0,1-.67,0c-1.57-.56-1.56-0.56-2.86.3-1.08-1.56-2.25-.25-3.47,0-0.86-2.44-3.21-2-5-2.59-2.24-.77-4.35-1.55-5.6-3.84a38.85,38.85,0,0,0-3-3.91,2.88,2.88,0,0,1-.47-1.42,23.78,23.78,0,0,0-.05-2.81,7.31,7.31,0,0,1,.39-3.76c1.39-4.63,4-8.6,6.34-12.75,1.28-2.31,3.24-4.32,4.15-6.74,1.55-4.14,4.36-7.46,6.57-11.15,1.42-2.38,3.18-4.78,6.17-5.64a1.37,1.37,0,0,0,.86-0.48c0.54-2.44,2.69-2.79,4.5-3.66a5.22,5.22,0,0,0,1.33-1.21c1.17-.18,2.09-0.35,3-0.44a1.54,1.54,0,0,1,1.14.24c1.69,2,3.35,4.08,4.94,6.19a7,7,0,0,1,.7,1.85c-1.43,1.94-4.47,2.22-5.27,4.95a3.12,3.12,0,0,1-1.3.22c-0.08,1.92-.62,2.54-2.66,3a1.63,1.63,0,0,0-.85.46c-1.44,1.78-2.88,3.55-4.23,5.39a8.31,8.31,0,0,0-.89,2.12,10.06,10.06,0,0,1-.58,1.86c-1.71,2.8-3.33,5.67-5.31,8.27a29.7,29.7,0,0,0-2.7,4.9c-0.81,1.62-1.72,3.18-2.51,4.81-0.47,1-.79,2-1.21,3.12a3.89,3.89,0,0,0,3.58,1.26c0.87-.18,1.9.53,2.88,0.71a37.46,37.46,0,0,1,8.29,2,20,20,0,0,0,3.8.78,3.18,3.18,0,0,1,.91.39c0.89,0.52,1.79,1,2.65,1.59,1.83,1.23,3.7,2.41,5.4,3.81,1.42,1.17,3.09,2.41,3.78,4s1.45,3.11,2.11,4.69c0.25,0.6.8,1.93-.6,2.52A7.84,7.84,0,0,0,456.94,182.64Z"/><path class="6a2af364-aea3-4428-bd89-4ebdfd5a548f" d="M573,129.5l1-.44c0,1.41,0,2.73.13,4a31.71,31.71,0,0,0,.6,3.47,3.78,3.78,0,0,1,.45,1.25c-0.79,2,.67,3.82.34,5.81-0.11.66,0.78,1.48,1.2,2.21,1.67-1,2.5-2,2.37-4.13a8.34,8.34,0,0,1,1.33-4.47c1.3-2.11,1.84-4.73,2.52-7.18,0.27-1,.53-1.45,1.42-1.12a109,109,0,0,1,6-16.45c1.27-2.89,2.41-5.83,3.7-8.71,0.64-1.43,1.47-2.73.82-4.43-0.27-.72,1.63-2.81,2.49-3a3.59,3.59,0,0,1,2.89.23c0.92,0.54,2.26.35,3.41,0.51a1.57,1.57,0,0,1,.9.36c1.2,1.32,2.28,2.75,3.53,4a3.12,3.12,0,0,1,.67,3.76c-0.7,1.62-1.39,3.24-2.21,4.79q-1.73,3.3-3.65,6.5c-0.62,1-.85,2.2-1.91,3.16s-1,2.81-1.55,4.27q-1.19,3.48-2.42,7c-0.67,1.88-1.3,3.78-2.06,5.63s-1.6,3.39-2.38,5.1a11.64,11.64,0,0,0-.54,1.58,4.32,4.32,0,0,1-.5,1.76c-1.79,1.72-1.68,4.07-2.32,6.18-0.51,1.66-1.31,3.23-1.9,4.87a18,18,0,0,0-.52,2.46,23.38,23.38,0,0,0-2,4.21c-0.76,3-1.23,6.09-1.77,9.16-0.33,1.88-2.2,2.27-3.23,3.48a0.33,0.33,0,0,1-.32,0c-1.35-1.84-4.42-1.05-5.38-3.69-0.54-1.49-.83-1.39-2.86-1.47-0.41-1.3-.46-2.78-1.22-3.61-1.18-1.29-1.13-2.9-1.71-4.32a28.77,28.77,0,0,1-.93-4c-0.72-2.86-1.57-5.68-2.2-8.56-0.57-2.59-1-5.23-1.33-7.86-0.18-1.43.13-2.93-.12-4.34a31.94,31.94,0,0,0-1.37-3.9,5.51,5.51,0,0,1-.13-1.73,19.55,19.55,0,0,0,.12-2.75c-0.44-3.46-2-6.72-1.28-10.4,0.41-2-.11-4.16,0-6.24,0.12-2.48.43-4.95,0.75-7.41a2.37,2.37,0,0,1,.93-1c0.15-.13.48-0.07,0.65-0.2,1.35-1.07,2.61-1.31,4,0,0.34,0.31,1.25,0,1.66,0,1.28,1.55,2.57,3,3.78,4.6a3,3,0,0,1,.81,1.76c-0.18,2.25-.55,4.49-0.84,6.73a4.42,4.42,0,0,0-.08.84c0.14,2.23-.26,4.49.84,6.67C574.46,126.07,573.93,127.78,573,129.5Z"/><path class="6a2af364-aea3-4428-bd89-4ebdfd5a548f" d="M387.86,152.19c0.45-1.85.95-3.45,1.22-5.09,0.44-2.72.57-5.46,1.85-8,0.49-1,0-2.47,0-3.71a17.59,17.59,0,0,1,.21-2.59c0.21-.93.68-1.79,0.92-2.71,0.35-1.31,1.43-.78,2.22-1,2.24-.67,3.69.47,5.32,1.81a18,18,0,0,1,4.12,5.18c-0.16,1.57-.28,3.27-0.53,5-0.36,2.5-.88,5-1.2,7.49-0.4,3.1-1.56,6-1.74,9.2a81.55,81.55,0,0,1-1.57,9.19c-0.24,1.37-.38,2.76-0.63,4.13-0.35,1.93-.81,3.84-1.12,5.78s-0.52,3.95-.77,5.92c-0.1.79-.21,1.58-0.27,2.37a40.14,40.14,0,0,1-.42,6c-0.8,3.57.29,7,.28,10.5a2.92,2.92,0,0,1-1,1.63,11.85,11.85,0,0,1-1.69,1.28l0.26,0.39c-0.71,0-1.42-.06-2.14-0.11a2.66,2.66,0,0,1-2.54-1.39c-0.27-.52-1.13-0.72-1.69-1.1a3.55,3.55,0,0,1-.8-0.73c-0.32-.4-0.52-1.17-0.86-1.22-1.38-.22-1.37-1.32-1.62-2.24-0.54-1.94-1.75-4.06-1.35-5.81,0.65-2.85-.53-5.88,1.12-8.56a4.29,4.29,0,0,0,.15-2.17,20.31,20.31,0,0,1,1-7.4c0.37-1.08-.77-2.61,1.06-3.12a5.87,5.87,0,0,1,.14-4.5,32.82,32.82,0,0,0,.76-3.92,6.5,6.5,0,0,1,1-2.21,6.18,6.18,0,0,1,.32-4.16C388.44,155,389.23,153.21,387.86,152.19Z"/><path class="c02f43ef-f1df-4072-a514-edc616eb3212" d="M832.05,290.84a1.2,1.2,0,0,1-.42-0.35,5.59,5.59,0,0,1-.85.5,0.92,0.92,0,0,1-.29.59l-2.41,2.22c0.31-.22.61-0.45,0.93-0.67l2.53-2.05A1.12,1.12,0,0,1,832.05,290.84Z"/></svg>