<svg id="f8f4563d-39cd-420f-927c-fdee5770aff6" data-name="Layer 1" xmlns="http://www.w3.org/2000/svg" viewBox="0 0 596 82"><defs><style>.\34 a2eab81-065e-496d-9011-e1bce6f7790a{fill:#fafafa;}</style></defs><title>making-brands-come-alive</title><path class="4a2eab81-065e-496d-9011-e1bce6f7790a" d="M440.46,43c-0.74,4.64-1.3,9.32-.17,14,1,0.51,1.71-.13,2.49-0.29a12.6,12.6,0,0,1,.75-1.14,1.69,1.69,0,0,0,.39-1.51c-0.22-1.07-.67-2.16.1-3.21-0.94-.7-0.21-1.55-0.06-2.22,0.29-1.33.23-2.7,0.65-4a36.06,36.06,0,0,1,1.25-3.91,26.73,26.73,0,0,1,2.7-5.25,2.23,2.23,0,0,0,.31-0.78,7.14,7.14,0,0,1,1.58-3.18,6.54,6.54,0,0,0,.67-1,1.64,1.64,0,0,1,0-.17,5.53,5.53,0,0,1,1.52-1.71c1-.41.21-1.48,1-1.89a21.72,21.72,0,0,0,1.86-1.41c0.61-.4.71-0.35,1.36,0.24a1,1,0,0,0,.37.33,4.26,4.26,0,0,1,2.34,1.21,2.84,2.84,0,0,1,1.23,2.1c0.1,0.85.56,1.75-.09,2.6a0.87,0.87,0,0,0,0,.52,16.72,16.72,0,0,1-1,6.68,22.66,22.66,0,0,1-1.63,4,6.58,6.58,0,0,0-.61,2,10.31,10.31,0,0,1-2,4.35c-0.59.81-1.19,1.61-1.71,2.49-0.67,1.13-1.54,2.14-2.26,3.23-0.31.47-.91,0.85-0.71,1.61a2,2,0,0,0,2.14.44,23.48,23.48,0,0,0,6-2.33,42,42,0,0,0,3.91-2.8c1.48,2,1.48,2.31,0,4l0.44,1.19a18.71,18.71,0,0,1-4.85,2.91,44.52,44.52,0,0,1-4.46,1.24,2.47,2.47,0,0,1-1.24.07c-1.42-.42-3-0.53-4.15-1.61a1.05,1.05,0,0,0-1.48,0l-1.51,1.29a5.39,5.39,0,0,1-5.39.85,7.06,7.06,0,0,1-3.82-3.31,4.93,4.93,0,0,1-1-3.7,1.38,1.38,0,0,0-.37-1.5,0.32,0.32,0,0,1-.1-0.15,0.6,0.6,0,0,1-.09-0.34c0.56-1.05-.56-2.08,0-3.13,0.31-.62-0.22-1.44.46-2a0.35,0.35,0,0,0,0-.33c-0.75-.69-0.27-1.45-0.16-2.19a12.14,12.14,0,0,1,.32-2.1,1.44,1.44,0,0,0-.23-1.46,0.74,0.74,0,0,0-.34.15c-0.35,1.23-1.44,2-2,3.13-0.2.43-.36,0.88-0.59,1.3-0.9,1.63-1.85,3.22-2.71,4.87-0.44.84-.68,1.79-1.16,2.61a11,11,0,0,1-1.63,2.12,3,3,0,0,0-.86,1.73,8.14,8.14,0,0,1-.45,1.73,1.49,1.49,0,0,1-2,1c-0.4-.12-0.78-0.32-1.18-0.44a7.79,7.79,0,0,0-.95-0.17,3.93,3.93,0,0,1-1.34-4.29A9.52,9.52,0,0,0,420,54a16.5,16.5,0,0,1,.52-3.17,13.12,13.12,0,0,0,.28-2.76,3.6,3.6,0,0,1,.06-1.07,12.14,12.14,0,0,1,.9-1.51c-0.59-.5-0.06-1,0.05-1.44s0.7-1.16.17-1.84a0.78,0.78,0,0,1,.12-0.48A56.29,56.29,0,0,0,423.6,36a4.74,4.74,0,0,0-.71.57,2.61,2.61,0,0,1-.33.63c-1.11.77-1.43,2-2,3.12-1,1.67-1.91,3.34-2.85,5-0.46.83-.9,1.68-1.33,2.53-0.9,1.81-1.92,3.55-2.68,5.43-0.6,1.49-1.42,2.88-2.12,4.33A4.82,4.82,0,0,0,411,59a2.77,2.77,0,0,1-2.28,2.49c-2-.13-3-1.55-3.87-3.17,0.16-1.14.24-2.28,0.49-3.39a25.75,25.75,0,0,1,.9-2.53c0.27-.79.52-1.59,0.74-2.39a42.43,42.43,0,0,1,2.09-5.91c0.21-.49.32-1,0.53-1.53,0.48-1.13.29-2.48,1.29-3.47a3.5,3.5,0,0,0,.5-1.7c0.28-1.41.42-2.85,0.83-4.22a9.25,9.25,0,0,0-.07-4.37l-2.19-1.08c-1.13.27-2.47,0.58-3.8,0.92a3.56,3.56,0,0,0-1,.47,0.77,0.77,0,0,1-1.2-.31l-1.09.81a5.31,5.31,0,0,1,.87,2.74,6.94,6.94,0,0,0,.19,2,15,15,0,0,1,.22,2A45.73,45.73,0,0,1,403.09,44c-0.23.8-.37,1.63-0.57,2.43a2.44,2.44,0,0,1-.44,1.32c-0.69.42,0,.87-0.18,1.28a8.51,8.51,0,0,0-.33,1.39,4.35,4.35,0,0,1-.27.86c-1.8,3.72-3.69,7.39-5.84,10.94-0.94,1.55-2.1,2.88-3.17,4.31a3.11,3.11,0,0,1-2.86,1.23c-0.54,0-1.08-.07-1.61-0.13a3.75,3.75,0,0,1-2-.81A34.92,34.92,0,0,1,383,63.52a2.33,2.33,0,0,1-.2-0.69c-0.16-1.18-.36-2.36-0.44-3.55a6.56,6.56,0,0,1,.2-2c0.11-.47.63-0.9-0.05-1.33a11.52,11.52,0,0,1,.21-2.13,14.7,14.7,0,0,0,.57-3.64,1.24,1.24,0,0,1,.17-0.69c0.63-.8.25-1.78,0.52-2.64s0.53-1.72.73-2.59,0.37-1.87.54-2.81a0.8,0.8,0,0,0-.16-0.25,1.19,1.19,0,0,0-.56.15c-1.14,1.22-2.2,2.51-3.37,3.69-2.94,3-5.35,6.43-8.52,9.2A28.91,28.91,0,0,0,370.24,57c-0.88,1-1.77,2-2.65,3-0.51.58-1,1.23-1.51,1.78a11.69,11.69,0,0,1-7.66,3.83,41.38,41.38,0,0,1-4.27-.42,1.86,1.86,0,0,1-.78-0.41c-0.3-.19-0.58-0.43-0.89-0.62a7.94,7.94,0,0,1-3.08-2.79,11.28,11.28,0,0,1-2.06-4.73,32.87,32.87,0,0,1-.34-4.81,5.24,5.24,0,0,0,0-1.08,7.45,7.45,0,0,1,.36-3.66,4.63,4.63,0,0,0,.34-2.45,0.92,0.92,0,0,1,.11-0.67,9.15,9.15,0,0,0,.83-3.06,7.34,7.34,0,0,1,.76-2.73,8.14,8.14,0,0,0,.45-2.22,6.93,6.93,0,0,1,1.37-3.26,0.71,0.71,0,0,0,.17-0.31,18,18,0,0,1,2.74-5.78,2.12,2.12,0,0,0,.18-0.81,1.1,1.1,0,0,1,.05-0.46,14.79,14.79,0,0,0,2.23-3.6,4.88,4.88,0,0,1,.89-1.13,4.87,4.87,0,0,0,.95-1.47,15.74,15.74,0,0,1,1.83-2.64c0.4-.51.94-0.91,1.39-1.39a18.05,18.05,0,0,1,5.3-3.9,12.09,12.09,0,0,1,4-.89,2.5,2.5,0,0,1,.87.15c0.57,0.15,1.13.34,1.71,0.47a2.06,2.06,0,0,1,1.78,2.57c-0.07.75,0.07,1.53,0,2.27a10.75,10.75,0,0,0-.52,2.08,14.11,14.11,0,0,1-.41,3.7,2.7,2.7,0,0,1-.46,1.34c-1,1.12-1.22,2.56-1.65,3.91-0.28.9-.29,0.9-1.37,1.89a2.53,2.53,0,0,1-1-2.35A7.32,7.32,0,0,1,370.7,22a2.2,2.2,0,0,0,.26-0.86c0.18-1.3.4-2.6,0.46-3.9a2.8,2.8,0,0,0-.23-2.08,1.72,1.72,0,0,1,.14-0.86,1.63,1.63,0,0,0-2,.27,25.31,25.31,0,0,0-3.66,3.4,48.3,48.3,0,0,0-3.44,4.55c-0.48.83-1,1.63-1.43,2.49a15.56,15.56,0,0,1-2.11,3.52,2.27,2.27,0,0,0-.31.63c-0.4.93-.73,1.9-1.21,2.79a38.82,38.82,0,0,0-2.88,7.7c-0.27.91-.62,1.79-0.94,2.69a1.23,1.23,0,0,0-.12.34c-0.05,2-1,3.94-1,6,0,1.43-.37,2.86-0.35,4.29a14.51,14.51,0,0,0,1.39,6.81,2.44,2.44,0,0,0,1,1,3.93,3.93,0,0,0,3.95.14A11.73,11.73,0,0,0,362,57.93c1-1.4,2.24-2.66,3.39-4a3.7,3.7,0,0,0,1-.86,2.41,2.41,0,0,1,.73-1.18,15.78,15.78,0,0,1,1.26-1.26,34.4,34.4,0,0,0,3-2.55,11.94,11.94,0,0,1,2.62-2.62,2,2,0,0,1,.9-1.45c1.18-1.34,2.47-2.57,3.68-3.88a24,24,0,0,0,2.68-3.12c0.51-.78,1.28-1.21,1.82-1.93,1.26-1.66,2.59-3.27,3.9-4.89a56.73,56.73,0,0,0,4.42-5.87c0.16-.25.39-0.46,0.54-0.72a1,1,0,0,1,1.24-.49L395,23.53c0.13,0.17.3,0.41,0.49,0.64A9.49,9.49,0,0,0,399.24,27a18.33,18.33,0,0,1,1.9,1.05,4.59,4.59,0,0,0,2.24-.92c0.92-.65,1.92-1.18,2.89-1.77a0.3,0.3,0,0,1,.16-0.07c1.17,0.21,2.18-.45,3.28-0.55a3.54,3.54,0,0,1,2.72.71,5.88,5.88,0,0,0,1.1.6,1.76,1.76,0,0,1,.64.31c0.81,1.18,2.15,1.84,2.89,3.12a4.84,4.84,0,0,1,.63,3.43,4.15,4.15,0,0,0-.06.87,2.1,2.1,0,0,0,.21.55l1.59-1.4a3.75,3.75,0,0,1,.44-1.25,7,7,0,0,0,1.61-2.36,3.08,3.08,0,0,1,.64-0.86c0.82-.94,1.6-1.93,2.5-2.79a3.17,3.17,0,0,1,4.28-.29,8,8,0,0,1,1.66,1.64,2.63,2.63,0,0,1,.41,2.23q-0.61,2.9-1.35,5.77c-0.25,1-.67,1.92-1,2.89a13.72,13.72,0,0,0-.51,2.08,11.16,11.16,0,0,1-1.1,3.4,0.73,0.73,0,0,0,0,.34c1.14-.12,1.25-0.14,1.31-0.95a4.09,4.09,0,0,1,1-2.27,30,30,0,0,0,2.76-4.11,7.35,7.35,0,0,0,.57-0.63c0.21-.51.91-0.77,0.76-1.48a0.77,0.77,0,0,1,.19-0.49c0.33-.46.71-0.89,1-1.36a12.74,12.74,0,0,1,.88-1.52,2.15,2.15,0,0,0,.55-0.87,1.74,1.74,0,0,1,.51-0.92A9.4,9.4,0,0,0,439,25.77c0.57-1,1.54-1.21,2.77-.51a6.91,6.91,0,0,1,2.28,2.48,2.07,2.07,0,0,1,.07,1.75c-0.45,1.29-.83,2.61-1.25,3.91-0.6,1.86-1.05,3.76-1.51,5.65-0.29,1.21-.33,2.51-1.33,3.45A5.78,5.78,0,0,0,440.46,43ZM390.68,60.44a3.32,3.32,0,0,1,.11-1c0.29-.64.69-1.24,1-1.86,1.4-2.44,2.71-4.93,4-7.44,0.42-.82.29-1.72,0.77-2.48a6.07,6.07,0,0,0,.84-2.72,8.9,8.9,0,0,1,.28-1.21,23.2,23.2,0,0,0,1-6.33,9.48,9.48,0,0,1,.09-2.87c0.42-1.47-.17-2.79-0.24-4.18a0.88,0.88,0,0,0-.3-0.27,9.7,9.7,0,0,0-2.48,1.23c-1.8.85-2.33,2.4-2.83,4.07a19.68,19.68,0,0,1-1.2,3.18,2.42,2.42,0,0,0-.31.92c-0.11,1.18-.91,2.21-0.73,3.45-0.87.77-.51,1.91-0.86,2.84-0.1.28-.2,0.57-0.29,0.85a6.49,6.49,0,0,0-.42,1.34c-0.2,2.09-1,4.08-1,6.2a4.67,4.67,0,0,1-.19.69,12.84,12.84,0,0,0-.22,2.49c0,0.81-.49,1.57-0.2,2.46a3.22,3.22,0,0,1-.48,1.4l0.79,1.27a2,2,0,0,0,1.41-.84A9,9,0,0,1,390.68,60.44Zm65.39-27.3c-1.65,1.42-2.23,3.48-3.25,5.25a20.67,20.67,0,0,0-1,2.3c-0.56,1.32-1.2,2.61-1.67,4a8.83,8.83,0,0,0-.71,3.37c0.51,0.15.79,0.08,1-.36a5.8,5.8,0,0,1,1.5-2.4c0.79-.68.41-1.79,1-2.52,0.19-.22.25-0.55,0.43-0.78a5.09,5.09,0,0,0,1.24-3.08,1.28,1.28,0,0,1,.9-1.12c-0.5-1.28.35-2.2,0.76-3.12Z" transform="translate(0 0)"/><path class="4a2eab81-065e-496d-9011-e1bce6f7790a" d="M183.6,46.93a6,6,0,0,1,2.56-2.51,1.59,1.59,0,0,0,.78-0.91c0.31-1.06,1-2,.62-3.24a1.66,1.66,0,0,1,.21-0.67,27.84,27.84,0,0,0,.76-3c0.17-1.11.88-2.14,0.52-3.33l1.25-2.83a7.16,7.16,0,0,1,.91-4.14c-0.22-.46-0.84-1,0.24-1.6a4,4,0,0,0-3.72-.59c-0.58,0-.42-0.61-0.89-0.41a0.82,0.82,0,0,1-.62.08,9.62,9.62,0,0,1-2.28-2.22,1.52,1.52,0,0,1-.28-0.64c0-.52-0.32-1.11.2-1.53a1.24,1.24,0,0,1,1.5,0c0.2,0.12.48,0.08,0.68,0.2a2.49,2.49,0,0,0,2.72-.12,8,8,0,0,1,2.83-.91,2.34,2.34,0,0,0,1.88-1.49c0.33-.82.62-1.67,0.9-2.51a3.16,3.16,0,0,1,.16-0.87c1-1.22,1-2.8,1.66-4.13s0.67-2.53,1.31-3.7a3.46,3.46,0,0,0,.08-1.06,14.24,14.24,0,0,1,.35-1.93,1.23,1.23,0,0,1,1.8-.86,7.7,7.7,0,0,1,2.92,2,7,7,0,0,1,.63.77,1.28,1.28,0,0,1,0,.45,16.32,16.32,0,0,0-1,2.63,7.76,7.76,0,0,1-1,2.59,1.21,1.21,0,0,0-.25,1,1.87,1.87,0,0,1-.35,1,8.56,8.56,0,0,0-.87,4.57c0.6-.12,1.2-0.25,1.8-0.35a6.94,6.94,0,0,1,4.14.88c0.7,0.33,1.41.65,2.09,1a3,3,0,0,1,1.8,1.39,2.29,2.29,0,0,0,.87.57,6.84,6.84,0,0,1,.85.63,0.8,0.8,0,0,1,.21.49,7,7,0,0,0,.68,2.11,2.19,2.19,0,0,1,.07,1.37,17.66,17.66,0,0,1-1.15,3,16.66,16.66,0,0,1-1.61,2.31c-0.86,1.13-1.73,2.25-2.61,3.36-0.15.19-.33,0.35-0.49,0.53a7.61,7.61,0,0,0-1.64,1.56,9,9,0,0,1-1.34,1.59,0.53,0.53,0,0,0,.75.33,6.6,6.6,0,0,0,1.22-.32,3.48,3.48,0,0,1,2-.53,7.28,7.28,0,0,0,2.08-.39,8.72,8.72,0,0,1,5.14,1.13,33.08,33.08,0,0,1,2.88,1.75,2.21,2.21,0,0,0,.59-1.46,40.65,40.65,0,0,1,1.57-7.36,29.67,29.67,0,0,1,1.15-3.16,1.08,1.08,0,0,1,1.41-.78,4.78,4.78,0,0,1,3.28,2.6,2.24,2.24,0,0,1,0,1.36,20,20,0,0,1-.79,2.17,1.8,1.8,0,0,0-.21.28,5.43,5.43,0,0,1,0,1.37,13.9,13.9,0,0,1-.78,1.19,4.37,4.37,0,0,0-.15,1.06c-0.17,1,.31,2-0.54,2.87,0.37,1-.16,1.88-0.09,2.83a3,3,0,0,1-.18.85c0.36,0.33.62,0.22,0.89-.13A33.65,33.65,0,0,1,227.06,39a17.32,17.32,0,0,0,2-2.3,22.05,22.05,0,0,1,3.77-3.83,14,14,0,0,1,3.72-2.69c1.33-.5,2.53-1.39,3.89-1.66,2.75-.55,4.83.58,5.85,3.7a3.37,3.37,0,0,1,.08.41c1.54,0.06,3.08.21,4.27,1.56a8.35,8.35,0,0,1,.92-0.45,1,1,0,0,1,.69-0.06A10.4,10.4,0,0,1,255,35.34a3.14,3.14,0,0,1,.47,4.24,5.76,5.76,0,0,0-.66,2.54,3.84,3.84,0,0,1-.12,1,9.88,9.88,0,0,0-.64,1.46,5.74,5.74,0,0,1,0,1.57c-0.21.53,0.05,1.19-.48,1.67a1.33,1.33,0,0,0-.07.66,1.88,1.88,0,0,1-.14,1,1.11,1.11,0,0,0-.21,1.3,21.28,21.28,0,0,1-.16,4.34,2.91,2.91,0,0,0,.44,1.09,6,6,0,0,1-.55.55,1,1,0,0,0-.32,1.15,1.36,1.36,0,0,1,.12,1.5,1.22,1.22,0,0,0,.34.73,1.09,1.09,0,0,1,.2,1.23,4.44,4.44,0,0,1-3.29-.9,5.24,5.24,0,0,1-2.15-4.85c0.09-1.42,0-2.85,0-4.28a0.62,0.62,0,0,0-.53-0.72c-1.34,1.27-2.64,2.48-3.92,3.7a20.44,20.44,0,0,0-2,2,19.9,19.9,0,0,1-3.3,2.76,2,2,0,0,1-2,.38,1.33,1.33,0,0,0-.68-0.06,2.22,2.22,0,0,1-2.46-1.33l-1.35-2.23a5.43,5.43,0,0,0,0-1.47,2.77,2.77,0,0,1,.59-2.33,11.72,11.72,0,0,0,1.55-2.79,13.46,13.46,0,0,1,2-3.13,4,4,0,0,0,1-1.66,1.18,1.18,0,0,1,.24-0.47c1.61-2.22,3.22-4.44,4.86-6.65a1.31,1.31,0,0,1,1.23-.9,0.68,0.68,0,0,0,.53-0.4c0-1,.9-1.31,1.54-1.79,0.35-.26.35-0.27,0.7-1.26a4.16,4.16,0,0,0-3.6.34A18.28,18.28,0,0,0,238,35.88a15.52,15.52,0,0,1-2.67,1.72c-0.56,1.06-.7,2.35-2,2.88a24.18,24.18,0,0,1-3.28,3.27,10.88,10.88,0,0,0-1.19,1.93C228,47,227,48.39,226,49.78a35.88,35.88,0,0,1-3,4,7,7,0,0,0-1.19,2.39,6.06,6.06,0,0,1-2.18,3.46,8.64,8.64,0,0,1-1.18,0,1.14,1.14,0,0,1-.78-0.32c-0.27-.93-1.61-1.1-1.53-2.24-0.8-.95-0.48-2-0.38-3.09s0.23-2.26.31-3.39a1.53,1.53,0,0,0-.26-0.54,1.8,1.8,0,0,0-.62.34,32.37,32.37,0,0,1-3.85,4.48c-1.49,1.45-2.75,3.14-4.13,4.71-0.39.44-.85,0.83-1.29,1.23a2.5,2.5,0,0,1-2.47.72,1.91,1.91,0,0,0-.66.05l-1.54-1.33c-1.24-1-1.28-1.19-.77-2.8a18.54,18.54,0,0,0,2-1.25,12.62,12.62,0,0,0,1.77-1.78c1.51-1.83,3.22-3.49,4.67-5.38a16.17,16.17,0,0,1,1.88-1.74,12,12,0,0,1,1.73-3.63c0.48-.79,1.12-1.64.37-2.7a7.19,7.19,0,0,0-1.38,0,18.6,18.6,0,0,0-5.07,1.71,1.68,1.68,0,0,1-.3.19c-2.81.69-5.23,2.32-8,3.26a33.73,33.73,0,0,0-4.45,2.27l-0.46-.5c-0.15,1.37-1.59,1-2.3,1.87,0.26,1.12-.52,2.15-0.41,3.39a28.15,28.15,0,0,1-.43,3.73c-0.07,1.18.33,2.39-.23,3.6a3,3,0,0,1-3-.55A3.57,3.57,0,0,1,185.3,58a2.84,2.84,0,0,1-.18-1c0.18-2.06,0-4.16,1-6.06a5,5,0,0,0-1.77-2.65A3.39,3.39,0,0,1,183.6,46.93Zm9.73-8.28,1.41,0.11a3,3,0,0,1,1.4-1.81c0.89-.59,1.68-1.31,2.58-1.88a2.28,2.28,0,0,0,.73-0.69A16.25,16.25,0,0,1,201.33,32a11.22,11.22,0,0,0,1-1.16c1-1.32,2.15-2.53,3.23-3.8a2.57,2.57,0,0,0,.39-0.59c0.56-1.23,1.11-2.47,1.65-3.69A2.09,2.09,0,0,0,206,21.16a7.21,7.21,0,0,0-3.52,0,17,17,0,0,1-2.8.48,4.39,4.39,0,0,0-1.91.42c-0.57,1.66-1.16,3.33-1.71,5-0.24.73-.34,1.51-0.59,2.23a13.79,13.79,0,0,0-.68,2.93,6.12,6.12,0,0,1-.93,3.24,1.51,1.51,0,0,0-.16.68C193.55,36.89,193.46,37.66,193.33,38.65ZM207,38.38l-0.33.51a6.65,6.65,0,0,0,.59.31A0.46,0.46,0,0,0,207.4,39,4.74,4.74,0,0,0,207,38.38Zm-12.65-6.21a1.45,1.45,0,0,0-.45-0.39,1.16,1.16,0,0,0-.47.16,1.4,1.4,0,0,0,.37.35A1.35,1.35,0,0,0,194.32,32.17Z" transform="translate(0 0)"/><path class="4a2eab81-065e-496d-9011-e1bce6f7790a" d="M73.89,52.31c-1,1.7-2.41,2.7-2.61,4.52-0.11,1-1,1.65-1.6,2.35a12.37,12.37,0,0,0-1.33,1.63,4.39,4.39,0,0,1-4.13,2.07c-0.36,0-.71-0.09-1.2-0.16l-0.77-1.06-1.55-.3c-0.16-1-1.87-1.28-1.26-2.7a3.22,3.22,0,0,0-.47-1,4.43,4.43,0,0,1-.08-1,2,2,0,0,1,0-.86c0.76-1.56,1-3.34,2-4.79a4.19,4.19,0,0,0,.37-1c0.4-1.08.84-2.12,2-2.5,0.33-.46-0.48-0.63-0.08-1.17a21.79,21.79,0,0,0,1.73-2.94c0.53-1,1.24-1.9,1.78-2.89s1.15-2.11,1.74-3.15a14.29,14.29,0,0,1,1-1.48,5.18,5.18,0,0,0,1.41-2.44,2,2,0,0,1,.49-0.73c0.91-1.27,1.78-2.56,2.73-3.78,0.58-.75,1.3-1.39,2-2.08a8.63,8.63,0,0,1,3.11,1.47c0,0.88,1.34,1,1,2.14a0.49,0.49,0,0,1-.15.19,11.75,11.75,0,0,0-1.82,1.09,8.4,8.4,0,0,0-1.15,1.58c-0.2.29-.4,0.58-0.59,0.89-0.37.61-.73,1.23-1.09,1.85-0.27.46-.5,1-0.79,1.4a14.64,14.64,0,0,0-2,3.49,3,3,0,0,1-.8,1A3.18,3.18,0,0,0,70.45,44a3.65,3.65,0,0,1-.54.91,5.64,5.64,0,0,0-.75,1.51c-0.15,1-1.06,1.54-1.86,2.11A1.44,1.44,0,0,1,67.35,50c-0.36.48-.76,0.93-1.09,1.43a7.11,7.11,0,0,1-.54,1.1,1.6,1.6,0,0,0-.61,1.21,3.56,3.56,0,0,1-.44,1.16l0.78,0.61a3.81,3.81,0,0,0,.69-0.9,14,14,0,0,1,2.56-3.8,10.92,10.92,0,0,0,1.65-2.5A7,7,0,0,1,71.21,47a35,35,0,0,0,2.95-4.86,26.52,26.52,0,0,0,1.21-2.38,7.42,7.42,0,0,1,1.37-1.8l2.14,0.7-0.08.77a0.6,0.6,0,0,0,.28.11c1.55-.4,2.4.24,2.17,1.75a52.24,52.24,0,0,1-1.74,8,6.92,6.92,0,0,0-.24,1.76,3.31,3.31,0,0,1-.7,2.25l0.64,1.38-1.29.6,0.76,0.33-0.43,1.13c1.08-.39,2.14-0.08,2.69-1.13,2-1.48,3.38-3.53,5-5.4a32.29,32.29,0,0,0,2.24-3,1.12,1.12,0,0,1,1.3-.35q0.25-2.37.5-4.74A1,1,0,0,1,90,41.77c1.08-2.15,1.08-4.56,1.7-6.83a1.05,1.05,0,0,1,0-.17A4.42,4.42,0,0,0,92.53,33a3.63,3.63,0,0,1,.37-1.7A5.51,5.51,0,0,0,93.21,30a2.72,2.72,0,0,1,1.25-1.91,5.23,5.23,0,0,1,.11-2.8A1,1,0,0,1,95,24.57a0.47,0.47,0,0,0,.26-0.35,3.6,3.6,0,0,1,.51-2.39c0.43-.66,0-1.62.89-2.06A4.3,4.3,0,0,1,98,16.63a1,1,0,0,0,0-.52,1,1,0,0,1,.76-1.06,6.29,6.29,0,0,0,1.28-.9c-0.55-.36-0.85-0.92-0.54-1.15,0.85-.62.77-1.69,1.33-2.43l0.42-.51,0.06,0.77c0.7,0.37,1.06-.31,1.57-0.54a3.94,3.94,0,0,1,2.88,3.29,2.26,2.26,0,0,1-.47,2.19,1.2,1.2,0,0,0-.39.77,0.88,0.88,0,0,1-.62,1,0.71,0.71,0,0,0-.26.57c0.6,0.7-.16,1.22-0.25,1.81a6,6,0,0,1-.69,1.44,1.34,1.34,0,0,0-.17.67,2.8,2.8,0,0,0,.31,1.15c0.39,0.62-.55.54-0.43,0.93,0.28,0.91-.25,1.74-0.23,2.63A1.72,1.72,0,0,1,102,28a4.1,4.1,0,0,0-.53,1.81c-0.1.51-.13,1-0.21,1.69L100.13,31a0.85,0.85,0,0,0-.09.35,2.16,2.16,0,0,1,.33,1c-0.62,1.24-.23,2.74-1.12,3.92a1.91,1.91,0,0,1-.7.7,0.41,0.41,0,0,0-.2.27C99,38.24,97.65,39,97.91,40.1a4,4,0,0,0,.92-0.24,14.68,14.68,0,0,0,3.82-3.38,26.5,26.5,0,0,1,3.62-3.73c1.17-.86,2-2.06,3.18-2.87a10.58,10.58,0,0,0,1.15-1.36c1-.95,1.35-0.94,2.52-0.25A1.93,1.93,0,0,1,114.44,30a1.49,1.49,0,0,0,.4.76,0.7,0.7,0,0,1-.06,1c-1.26,1.09-1.89,2.74-3.38,3.66a15.22,15.22,0,0,1-1.95,1.52c-0.43.19-.59,0.93-1,1.2a10.56,10.56,0,0,0-2.35,2.4,6.35,6.35,0,0,1-1.19,1.08,5.28,5.28,0,0,0-2.16,2,1.83,1.83,0,0,1-1.36.71c-0.38.1-.51,1-0.92,1.19-1.63.66-2.47,2.2-3.76,3.22-0.51.41-1,.9-1.44,1.35A1.16,1.16,0,0,0,95,51.43,0.92,0.92,0,0,0,96,52a14.93,14.93,0,0,0,2.67-.17,30.67,30.67,0,0,0,6.07-2,16.94,16.94,0,0,1,2.19-.82,1.59,1.59,0,0,1,1-.12c1.06,0.56,1.44-.3,1.95-0.84a1.78,1.78,0,0,1,2.15,1.74l1.39-.27a3.8,3.8,0,0,1,.91-2.44,2.53,2.53,0,0,0,.26-1.18,2.43,2.43,0,0,1,1.26-2.06,2.42,2.42,0,0,1-.09-1.64c0.44-1.56,1.32-2.95,1.62-4.55,0.91-1,1-2.32,1.6-3.47A1.89,1.89,0,0,1,120.58,33l2.62,1.37-0.33.75a2.48,2.48,0,0,1,.66.35,4.56,4.56,0,0,1,.51.82l-1.2,1.15a2.06,2.06,0,0,1-.22,2.12c-0.22,1.87-1.19,3.44-2,5.1a37.06,37.06,0,0,0-1.55,5.11,3.76,3.76,0,0,1,0,.52c-0.94,1.89-1,4-1.49,6-0.14.56-.73,1-0.47,1.68s-0.51,1-.27,1.7a5.7,5.7,0,0,1,0,1.78,16.87,16.87,0,0,0-.22,1.76,4.51,4.51,0,0,1-.7,1.77c-0.52-.07-1-0.13-1.44-0.2a0.8,0.8,0,0,1-.49-0.16c-0.31-1-1.41-1-1.93-1.77a1.59,1.59,0,0,1-.41-0.77,17.53,17.53,0,0,1,.07-4.11c0.45-1.84.59-3.75,0.89-5.81a4.43,4.43,0,0,0-1.09.14c-2.14.92-4.26,1.89-6.4,2.8A21.79,21.79,0,0,1,100,56.31c-0.77.13-1.33-.62-2-0.38a2.38,2.38,0,0,1-1.92,0,4.92,4.92,0,0,0-2.2-.39,3.87,3.87,0,0,0-.55,2.57c0,0.65,0,1.34-.66,1.68L93,61a1.38,1.38,0,0,1-1.43.61,18.31,18.31,0,0,1-1.85-.67c-0.6-.26-1.16-0.58-1.83-0.91a2.78,2.78,0,0,0,0-2.85,4.51,4.51,0,0,0-2.32,1.77,6.4,6.4,0,0,1-3.52,2.33,3.84,3.84,0,0,1-3.27-.46,21.46,21.46,0,0,1-3.31-2.47A5,5,0,0,1,74,54.78Zm25.78-20a2.86,2.86,0,0,0-1.49,1.46A2.33,2.33,0,0,0,99.68,32.29Z" transform="translate(0 0)"/><path class="4a2eab81-065e-496d-9011-e1bce6f7790a" d="M47.23,20.56a1,1,0,0,1-.11-0.5c0.47-.68,1-1.32,1.47-2a9.89,9.89,0,0,0,.58-0.87A6.55,6.55,0,0,1,52,14.53a20.25,20.25,0,0,0,2.36.74c0.85,0.16,1,1.13,1.75,1.37a4.11,4.11,0,0,1,.53,2.06A8.39,8.39,0,0,1,56.88,20a9.46,9.46,0,0,1-.48,1.14c-0.11.46-.07,0.95-0.16,1.42-0.2,1,.08,2.18-0.77,3a0.25,0.25,0,0,0,0,.17c0.13,1.8-1,3.26-1.42,4.9A14.24,14.24,0,0,0,53.3,34a0.89,0.89,0,0,1-.67,1.11,0.33,0.33,0,0,0-.16.25c0.55,1-.78,1.83-0.4,2.86a0.35,0.35,0,0,1-.17.29c-0.84.4-.71,1.14-0.7,1.86,0,1,0,2,0,3a0.94,0.94,0,0,1-.15.43,1.38,1.38,0,0,0-.31.4c0.22,1.81-.49,3.53-0.52,5.31,0,0.48-.11,1-0.1,1.43a3.69,3.69,0,0,1-1.23,3.22c0.65,0.55,1.4,1,1.44,2.05a5,5,0,0,0,1,2,1.18,1.18,0,0,0,.71.51A2.06,2.06,0,0,1,53.42,60a0.54,0.54,0,0,1-.15.23c-0.69.06-.94,1.09-1.69,0.85a8.31,8.31,0,0,1-1.52-.87c-0.57-.33-1.17-0.62-1.72-1A4,4,0,0,1,46.5,57a11.28,11.28,0,0,1-.88-3.38c0-1.7-.15-3.4-0.15-5.1,0-.59.47-1.15,0.09-1.82-0.13-.23.86-0.35,0.3-0.93s0.38-.78.21-1.1a1.32,1.32,0,0,1,.09-1.18,6.56,6.56,0,0,0,.06-1.06A4,4,0,0,1,46.44,41a2.89,2.89,0,0,0,.21-1.48A3.31,3.31,0,0,1,47,37.83a14.79,14.79,0,0,0,1.28-4.65,1.7,1.7,0,0,1,.6-1.2,0.77,0.77,0,0,0,.31-0.59c-0.35-.92.49-0.91,1-1.28l-0.76-.6a1.33,1.33,0,0,1,0-.46,10.64,10.64,0,0,1,.77-2c0.37-.62-0.18-1.22.17-1.89a3.4,3.4,0,0,1,.92-1.12l-0.91-.36-3.1,4.43a2.25,2.25,0,0,0-.59-0.2,0.49,0.49,0,0,0-.26.33,3,3,0,0,0,.45.54,1.35,1.35,0,0,1-.28.44,5.87,5.87,0,0,0-1.9,2.66,13,13,0,0,1-1,1.69,4.06,4.06,0,0,0-.92,2.09A2,2,0,0,1,42,37.21a4.52,4.52,0,0,0-1.45,2.23,15.41,15.41,0,0,1-1.9,3.65,1.3,1.3,0,0,0-.25.47c-0.42,2.22-1.75,4.06-2.67,6.05-0.7,1.5-1.51,3-2.17,4.5a1.45,1.45,0,0,1-.82,1.09c-0.33.09-.16,0.31-0.13,0.54a2.77,2.77,0,0,1-.45,1.92,10.46,10.46,0,0,0-.74,2.7,1.58,1.58,0,0,1-1.7.17c-1.26-.73-2.81-1.06-3.75-2.49,0.45-1,.17-2.3.81-3.37a2.49,2.49,0,0,0,0-.87c0-.53.1-1.06,0.18-1.58,0-.24.16-0.46,0.18-0.7,0.19-1.9.36-3.79,0.57-5.69A12,12,0,0,1,28,43.95a1.38,1.38,0,0,1,.62-0.35,2.55,2.55,0,0,1-.52-0.67c-0.18-.54.54-0.94,0.21-1.62a1.8,1.8,0,0,1,.26-1.51,3.21,3.21,0,0,0,.35-3.11,0.42,0.42,0,0,1,0-.34c0.87-1,.53-2.23.56-3.39a18.51,18.51,0,0,1,.23-2.28c0.11-.7.33-1.39,0.42-2.09,0.12-.87.16-1.75,0.25-2.63a2.3,2.3,0,0,1,.17-1c0.66-.94.28-2.05,0.62-3a19.74,19.74,0,0,0,.53-2.41c0.16-.76.31-1.52,0.46-2.28a1.63,1.63,0,0,0,.15-0.68c-0.48-1.35.13-2.57,0.37-3.84a12.87,12.87,0,0,0,.15-1.6A1.38,1.38,0,0,1,34.14,9.6a0.86,0.86,0,0,1-.75-0.89c0.08-1,0-2,0-3.13a2.58,2.58,0,0,0-.72.32A12.58,12.58,0,0,0,29.89,9a3.15,3.15,0,0,1-2.65,2l0.5,0.72c-0.43.64-.93,1.35-1.4,2.09a6.72,6.72,0,0,0-.95,1.67c-0.17.61-1.08,0.64-1,1.41a0.53,0.53,0,0,1-.25.45c-1.27.38-1,1.7-1.57,2.53a2.81,2.81,0,0,1-1.24,1.26,4.27,4.27,0,0,1-1.19,2.88,1.22,1.22,0,0,0-.45.76C20,26.24,18.62,27,18.43,28.25a1,1,0,0,1-.53.68,1.9,1.9,0,0,0-1,1.57,17.79,17.79,0,0,1-1.73,4.22c-0.39.65-.14,1.57-0.83,2.11-0.52,1.6-1.5,3-2.1,4.54-0.73,1.87-1.28,3.81-1.92,5.72a13.94,13.94,0,0,1-.64,1.68,17.5,17.5,0,0,0-1.14,3.37c-0.62,2.42-1.34,4.8-2,7.14a2.43,2.43,0,0,0-1.14.38,29.45,29.45,0,0,0-.8,3L3.31,63.75C1.67,63.6,1.67,63.6.25,62.34A28.1,28.1,0,0,1,0,58c0.09-1,.14-2,0.33-3,0.41-2.17.89-4.32,1.11-6.52a0.51,0.51,0,0,1,.05-0.17A11.43,11.43,0,0,0,2.5,45c0.17-1.11.45-2.21,0.71-3.31s0.66-2,.94-3.05c0.62-2.36,1.54-4.64,2.23-7A6.13,6.13,0,0,1,7.5,29.45a2.19,2.19,0,0,1,.25.84c-0.18.81-.45,1.6-0.66,2.41a4,4,0,0,0,.06.67A10.14,10.14,0,0,1,5.64,39c0.58,1.39.13,2.8-.25,4.23a0.46,0.46,0,0,0,.83-0.2c0.54-1.46,1-2.94,1.57-4.4,0.38-1,.82-2,1.25-3,0.26-.6.55-1.19,0.86-1.76s0.76-1.35,1.14-2a2.33,2.33,0,0,0,.36-0.6c0.38-2,1.56-3.57,2.41-5.32a6,6,0,0,0,.28-0.83,2.18,2.18,0,0,1,.32-1c0.79-.6.89-1.53,1.27-2.32,0.75-1.56,1.9-2.86,2.72-4.38a0.93,0.93,0,0,0,.39-0.85,0.7,0.7,0,0,1,.15-0.5c1.09-1.64,2.18-3.28,3.32-4.88a5.21,5.21,0,0,0,.7-1.13,14.72,14.72,0,0,1,1.37-2.24c1-.16.85-1.14,1.29-1.7a5.12,5.12,0,0,0,.55-0.93A0.84,0.84,0,0,1,27,4.68a0.36,0.36,0,0,0,.44-0.41c-0.08-.75.59-1,1-1.43a7,7,0,0,1,1.29-1.22A19.35,19.35,0,0,1,32.23.09a1.84,1.84,0,0,1,1.23.06,9.71,9.71,0,0,1,3.92,2.45A4.7,4.7,0,0,1,38,3.88c0.58,1.25.36,2.58,0.47,3.88-0.86,1,0,2.37-.81,3.37a0.44,0.44,0,0,0,0,.35c0.48,1.58-.41,2.88-0.86,4.27a1.47,1.47,0,0,0-.23.64c0.59,1.13-.15,2.22-0.08,3.33a2,2,0,0,1-1,2l0.8,0.91a5.77,5.77,0,0,1-.47.74,4.2,4.2,0,0,1-.54.48c0,0.67,0,1.18,0,1.7a4.24,4.24,0,0,1,0,1.91c-0.35.59-.22,1.29-0.55,1.75s0.15,1.28-.27,1.65c-0.64.57-.12,1.11-0.17,1.66a5.64,5.64,0,0,1-.21.86l-0.39,1.56c0.63,0.36-.35.92,0.17,1.37a1.06,1.06,0,0,1-.08,1c-0.53.71-.13,1.52-0.35,2.28A7.78,7.78,0,0,0,33.48,42a9.9,9.9,0,0,1,.79-1,2,2,0,0,0,.82-1.7,1.36,1.36,0,0,1,.37-1,14.75,14.75,0,0,0,2.22-3.63c0.92-1.61,2-3.12,2.9-4.73,1.19-2.12,2.57-4.13,3.78-6.24a1.79,1.79,0,0,1,1.12-1.09,0.36,0.36,0,0,0,.08-0.3c-0.2-.74.6-0.94,0.81-1.47a1.91,1.91,0,0,1,.9-0.43c0.06,0.45-.22,1.07.78,1.22ZM45.05,27.2a0.31,0.31,0,0,0,0-.16,7.16,7.16,0,0,0-.64-0.54,1.18,1.18,0,0,0-.24.2,7.54,7.54,0,0,0,.57.59A0.63,0.63,0,0,0,45.05,27.2Zm7-6.29c0.46,0.79.8,0.68,1.45,0.41Z" transform="translate(0 0)"/><path class="4a2eab81-065e-496d-9011-e1bce6f7790a" d="M559.68,47.38c-2.94-1.66-4.7-4.18-6.22-7.14a8.76,8.76,0,0,0-.68.69,1.54,1.54,0,0,0-.34.62,3,3,0,0,1-1,1.86,0.6,0.6,0,0,0-.22.46c0.27,0.95-.36,1.56-0.75,2.29-0.9,1.69-1.75,3.4-2.6,5.12a15.08,15.08,0,0,0-.62,1.66,2.47,2.47,0,0,1-.2.68c-1.2,1.54-1.39,3.55-2.48,5.15a8.41,8.41,0,0,0-.74,2.19,4.94,4.94,0,0,1-2.21.45c-0.72.12-.91-0.76-1.6-0.66a1.71,1.71,0,0,1-.62-0.78c-0.21-.35-0.38-0.73-0.57-1.1a2.31,2.31,0,0,1-.15-2,20.45,20.45,0,0,0,.49-3c0.49-2.52.66-5.08,0.94-7.62a7.76,7.76,0,0,1,.3-1.22,1.37,1.37,0,0,0,.2-0.48c-0.64-1.77.62-3.32,0.56-5.05a43.31,43.31,0,0,1,.34-5,2.18,2.18,0,0,0,.06-0.54c-0.4-2.11-.23-4.34-1.11-6.32-0.5-1.13-.9-2.44-2.1-3.19v-2l1.26-1.56c0.84,0.63,2,.61,2.42,1.71a1.24,1.24,0,0,0,.43.32A5.2,5.2,0,0,1,544.83,27a4,4,0,0,0,.31.83,1.84,1.84,0,0,1,.26.66c-0.1,1.41.82,2.61,0.83,4a25,25,0,0,1,.09,4.85,18.85,18.85,0,0,0-.16,4.27,0.53,0.53,0,0,0,.1.17,0.48,0.48,0,0,0,.73-0.23c0.3-.57.53-1.18,0.78-1.78a2.36,2.36,0,0,1,.22-0.68c1.38-1.48,1.63-3.57,2.8-5.15a24.84,24.84,0,0,0,2-3.57c0.39-.75.78-1.79,1.89-1.87a12.06,12.06,0,0,0,1.49,1,3.91,3.91,0,0,1,2.23,3.27,5.94,5.94,0,0,1,0,1.79,19.84,19.84,0,0,0,.12,5.53,4.73,4.73,0,0,0,1.11,2.43,1.13,1.13,0,0,0,2.1-.22,1.41,1.41,0,0,0,.3-0.64c-0.17-1,.47-1.78.85-2.62s0.83-1.6,1.2-2.41c0.27-.6.43-1.24,0.72-1.83a57.16,57.16,0,0,1,4.81-8.38,5.32,5.32,0,0,1,.65-0.6,1.7,1.7,0,0,0,.56-0.64c0.27-1.37,1.35-2.21,2.05-3.29s1.53-1.6,2.2-2.53A10.6,10.6,0,0,1,578,17a2.71,2.71,0,0,1,3.13.52,5.58,5.58,0,0,0,.66.85c1.53,1.12,1.54,2.54.81,4.12,0.55,0.47,1.45.52,1.55,1.41-0.44.76-.9,1.51-1.3,2.29a1.76,1.76,0,0,0,.12.78l1.14-.14-0.33,2.46-1.14.29L582.36,31l1,0.44A42.2,42.2,0,0,1,581.5,37a12.1,12.1,0,0,1-3.31,4.62c-1.48,1.08-2.82,2.42-4.65,3-0.94.31-1.66,1.23-2.81,1a1.24,1.24,0,0,0-.42.29,4.74,4.74,0,0,1-1.24.66,16.86,16.86,0,0,0-2.83,1.11,1.49,1.49,0,0,0-1,1,14.46,14.46,0,0,0-.69,6.56,13.17,13.17,0,0,1,.16,1.42,2.67,2.67,0,0,0,1,1.65,0.78,0.78,0,0,0,.66.19,21.08,21.08,0,0,0,2.42-.54,67,67,0,0,0,6.37-3.22c1.35-.75,2.57-1.76,3.86-2.62,0.94-.62,1.94-1.15,2.88-1.79a27.67,27.67,0,0,0,2.86-2.15c1.06-.95,2.39-1.57,3.21-2.83a4.84,4.84,0,0,1,1.55-1,38.54,38.54,0,0,1,4,2.73c0.3,1.34-.44,2.1-1.19,2.87-0.92.94-2.19,1.36-3.17,2.21a25.54,25.54,0,0,1-2.81,1.92,15,15,0,0,1-2.87,1.74,5.18,5.18,0,0,0-1.85,1.25,24.59,24.59,0,0,1-5.25,3.43c-1.46.83-2.89,1.88-4.69,2.08a6,6,0,0,0-1.43.67,5.75,5.75,0,0,1-3.19-.06,7.75,7.75,0,0,1-6.29-4.94,18.43,18.43,0,0,1-1.54-7,1.32,1.32,0,0,1,.47-1.45Zm20.88-24.86a7.83,7.83,0,0,0-2.06,1.54,56.34,56.34,0,0,0-3.76,4.73,70.56,70.56,0,0,0-3.94,6.36,57.16,57.16,0,0,0-2.46,5.38,0.63,0.63,0,0,0,.11.31,0.65,0.65,0,0,0,.32.09c1.29-.63,2.59-1.24,3.84-1.94,0.5-.28.81-0.93,1.33-1.15,1.84-.77,2.49-2.66,3.83-3.89a0.46,0.46,0,0,0,.14-0.32,3.82,3.82,0,0,1,1.15-2.53,0.85,0.85,0,0,0,.26-0.43c-0.21-1.12.59-2.05,0.58-3.14a4.71,4.71,0,0,1,.63-2.37A3.79,3.79,0,0,0,580.56,22.52Z" transform="translate(0 0)"/><path class="4a2eab81-065e-496d-9011-e1bce6f7790a" d="M156.32,46.2a1,1,0,0,0,1-.54c0.47-.61.89-1.26,1.37-1.87a7.57,7.57,0,0,1,.78-0.72,2.52,2.52,0,0,0,.59-0.62c0.38-.79.55-1.72,1.54-2-0.07-.8.73-1.18,0.91-1.87a3.13,3.13,0,0,1,1.58-1.85,4.09,4.09,0,0,1,2.28,1.65,1.15,1.15,0,0,0,.67.54,1.52,1.52,0,0,1,1.18,1.74,26,26,0,0,1-.33,4.92c-0.2,1.43-.39,2.85-0.64,4.27a13.51,13.51,0,0,1-.51,1.72,1.61,1.61,0,0,0-.18.45,3.84,3.84,0,0,1,.13,1c-0.4,1.49-.87,3-1.31,4.45a4.31,4.31,0,0,0-.31,1.19,6.39,6.39,0,0,1-.55,2.21A2.65,2.65,0,0,1,163,62.69l0.13,1a4.62,4.62,0,0,0-1.05,2c-0.09.46-.72,0.8-0.84,1.27a7.76,7.76,0,0,1-1.57,2.55,1,1,0,0,1-.32.42c-1.22.31-1.52,1.57-2.36,2.26a1.51,1.51,0,0,0-.39.53,2.54,2.54,0,0,1-1.69,1.52,2.17,2.17,0,0,0-1.45,1.13l-0.8-.19a1,1,0,0,0-.25.2c-0.45.71-.86,1.45-1.92,1.27a1,1,0,0,0-.5.38,4.29,4.29,0,0,1-2.32,1.29,7.92,7.92,0,0,0-1.5.6c-0.44.17-.89,0.32-1.34,0.45a2.88,2.88,0,0,0-.7.14c-1.39.9-3.05,0.88-4.56,1.36-0.57.18-1.11,0.45-1.67,0.64a3.71,3.71,0,0,1-1.54.43c-1.86-.28-3.81.33-5.61-0.55-1.47.29-2.54-.93-3.92-1-0.95-.7-2.2-0.89-3-1.81a1.55,1.55,0,0,0-.44-0.29,4.08,4.08,0,0,1-2-1.39c-0.79-.07-1.11-0.81-1.68-1.18a1.17,1.17,0,0,1-.45-1.68c0.14-.33.29-0.65,0.43-1a2.64,2.64,0,0,1,3,1c0.41,0.51.83,1,1.25,1.52a2.31,2.31,0,0,0,.47.46,16.46,16.46,0,0,0,4,1.79,2.85,2.85,0,0,0,.89,0,3.07,3.07,0,0,1,1.41,0,2.19,2.19,0,0,0,1.84,0c0.89-.23,1.82,0,2.71-0.46a12.19,12.19,0,0,1,2.58-.62,1,1,0,0,1,.34-0.11c1.36,0.37,2.29-.64,3.4-1.07a6.43,6.43,0,0,0,2.16-1.05,2.82,2.82,0,0,1,1.32-.1,9.88,9.88,0,0,1,1.51-1,13.08,13.08,0,0,0,3.26-2.17,8.46,8.46,0,0,1,2.86-2.13c1.09-1.47,2.49-2.66,3.63-4.07,0.87-1.07,1-2.6,2.12-3.49-0.17-.87,1-1.36.64-2.27a0.27,0.27,0,0,1,.06-0.17c1.06-1.79,1.26-3.86,1.83-5.8a22.16,22.16,0,0,0,1.13-4.94c-0.56-.25-0.42.28-0.59,0.39a2.19,2.19,0,0,1-.8.16c0.29,1.47.23,1.68-1,2.34a2.1,2.1,0,0,0-.74,1c-1.37,2-3,3.52-5.6,3.7a3,3,0,0,0-.88.45l-2.14-1c-0.71.47-1.7,0.6-2.59,1.11-0.6.34-1.53,0.08-2.29,0.18a3.68,3.68,0,0,1-3.07-1.14,30.64,30.64,0,0,1-2.5-2.27,6.16,6.16,0,0,1-1.38-4.5,7.63,7.63,0,0,1-.14-2,19,19,0,0,0-.12-2.09,16.13,16.13,0,0,0-.08-2.22l-0.67.95-1.32.15c0.32,0.66,1,.14,1.3.59-0.29.46-.64,0.93-0.9,1.44a3,3,0,0,0-.47,1.33,6.37,6.37,0,0,1-1.9,4.43,3.09,3.09,0,0,1-.52,2.67,2.56,2.56,0,0,0-.49,2,3,3,0,0,1,0,.69c-0.65,1-1.68.83-2.65,1-1.1-.64-1.67-1.83-2.56-2.7a1.12,1.12,0,0,1-.16-0.85,18.63,18.63,0,0,1,.59-3.18,54.42,54.42,0,0,0,1.6-7.92,46.33,46.33,0,0,0,.13-5.17,43,43,0,0,0-.38-6,4.71,4.71,0,0,1,.36-2.67,2.42,2.42,0,0,1-1-2.33,8.16,8.16,0,0,0-.45-2.64,2.93,2.93,0,0,1,.51-3.18,4,4,0,0,0,.36-0.57,2.16,2.16,0,0,1-.46-0.43,0.5,0.5,0,0,1,0-.47,0.83,0.83,0,0,1,.59-0.18c0.81,0.94,2.09,1,3,1.65a1.8,1.8,0,0,1,.93,2.26,3.49,3.49,0,0,0,0,2.47,1.11,1.11,0,0,1,0,1,0.93,0.93,0,0,0,0,.69,5.36,5.36,0,0,1-.09,4,2,2,0,0,1,.86,1.9c0.1,1.3.29,2.59,0.46,3.89a0.65,0.65,0,0,0,.22.12,1,1,0,0,0,.32-0.26c0.46-.9.8-1.87,1.89-2.28a1.91,1.91,0,0,0,.42-0.74c0.78-1.26,1.42-1.45,2.86-.93,0.88,0.32,1.34,1.33,2.37,1.4,0.31,0.64.67,1.26,0.92,1.93a5.35,5.35,0,0,1,.16,1.25l-0.64.22c0.13,0.15.25,0.28,0.35,0.42S143.9,38.8,144,39c0,0.54-.8,1-0.4,1.74,0.06,0.11-.43.45-0.43,0.69s0.46,0.46.45,0.67c0,1.24.24,2.53-.45,3.69a0.7,0.7,0,0,0-.09.51,7.29,7.29,0,0,1,0,3.83,1.56,1.56,0,0,0,.2.65l0.51,1.43,1.59,0.47c0.67-1,2.24-.5,3-1.63-0.62-1.5-.59-1.65.4-2.64,0.25-.25.46-0.53,0.69-0.79l1.26,0.67-1-1.41-0.19.79a1.58,1.58,0,0,1-.43-0.66,9.46,9.46,0,0,1,1.3-2.53,9.94,9.94,0,0,0,.86-1.3,6.2,6.2,0,0,1,1.21-1.71,3.79,3.79,0,0,1,1-1c0.56-.22.08-0.9,0.48-1.24s0.42-.6.7-0.81c0.43-.31,1-0.51.84-1.2a1.14,1.14,0,0,0,.91-0.91,2.55,2.55,0,0,1,.64-0.82,5.88,5.88,0,0,0,.93-1.09,2.4,2.4,0,0,1,2.39-1.57L160,32.16a9.52,9.52,0,0,0,1.25-.85,7.81,7.81,0,0,0,1-1.22A5.63,5.63,0,0,1,164.85,28a0.36,0.36,0,0,0,.15-0.09c0.75-1,1.71-.89,2.85-0.47l0.24,1.05L169,28c1.12,0.49,1.08,1.66,1.49,2.7a6.82,6.82,0,0,1-2.71.83c-0.67.46-.83,1.53-1.87,1.5a14.48,14.48,0,0,0-1.15,1.77,2.46,2.46,0,0,1-1.22,1.2,2.71,2.71,0,0,0-1.43,1.5A7.12,7.12,0,0,1,160.38,40a10.37,10.37,0,0,0-1.69,2.28c-0.75,1.33-2.06,2.35-2.32,4l-0.86-.15,0.3,1.06C156.5,47,156.42,46.62,156.32,46.2Zm-16.81,3.19c0.79,0.18.79,0.18,1.37-.68ZM160.18,38.7c-0.52-.23-0.75-0.34-1-0.41a0.5,0.5,0,0,0-.17.22,2.41,2.41,0,0,0,.54.53A1.91,1.91,0,0,0,160.18,38.7Zm5.29,16.87-0.18-.17-0.62.68,0.15,0.14Z" transform="translate(0 0)"/><path class="4a2eab81-065e-496d-9011-e1bce6f7790a" d="M310,64.21l2.33-3.71a2.89,2.89,0,0,1,.2-0.3c0.36-.44,1.09-0.4,1.3-1.13a3.42,3.42,0,0,1,1-1.25c0.42-.42.93-0.75,1.35-1.17s0.59-.7,1.14-1.38c-1.74.48-3.19-.24-4.53,0.58a1.38,1.38,0,0,1-.87,0,5.1,5.1,0,0,1-3.5-2.32c-0.13-.2-0.16-0.47-0.31-0.65a1.09,1.09,0,0,0-1.11-.73,1,1,0,0,0-.73,1.26c0.23,0.81-.69,1.22-0.49,1.94-0.55.44-1.08,0.91-1.66,1.3a8.62,8.62,0,0,1-1.33.59l0.41,0.81-1.39,1.46c-2.53.16-3.78-1.46-4.8-3.28A3,3,0,0,0,296,55a1.57,1.57,0,0,0-.61,0c0.4,1.32-.76,2-1.16,3-0.61.22-1.36,0-1.83,0.61A1.25,1.25,0,0,0,292,60l-1.82.54c-0.36.51,0.21,1.15-.4,1.39a3.83,3.83,0,0,1-1.37.22A6.13,6.13,0,0,1,287,62a2.88,2.88,0,0,1-1.14-.42,7.82,7.82,0,0,1-3-4.74,19.2,19.2,0,0,1-.13-2.14,9.16,9.16,0,0,1,.34-3.51,1.42,1.42,0,0,1,.17-0.51,7.79,7.79,0,0,0,1.34-2.9c0.72-2,2.21-3.48,3.11-5.35a7.91,7.91,0,0,1,1.65-2.32A17.75,17.75,0,0,0,291,38c0.36-.47.72-0.94,1.1-1.4a1.71,1.71,0,0,0,.39-0.34c0.5-2,2.44-2.69,3.61-4.08a4.55,4.55,0,0,0,1-1.61c0.43-1.32.22-2.71,0.69-4a16.59,16.59,0,0,0,.62-1.85c0.14-.59,1-1,0.44-1.76a0.81,0.81,0,0,1,.14-0.49,43.31,43.31,0,0,0,1.81-4.3,12.47,12.47,0,0,1,1.89-3.41c0.69-.95,1-2.2,2.25-2.88a1.74,1.74,0,0,1,.71.55,3.58,3.58,0,0,0,1.67,1.86c0.67,1.63.19,3.1-.23,4.51a11,11,0,0,1-1.37,2.26,3.21,3.21,0,0,0-.69,2,1.09,1.09,0,0,1-.19.69c-1.23,1.72-1.38,3.81-2,5.74a16,16,0,0,0-.61,3.87,15.45,15.45,0,0,1-.81,4c-0.42,1.27-.17,2.57-0.31,3.86-0.21,1.89-.17,3.8-0.33,5.7a28.9,28.9,0,0,0,.06,3.31,3.71,3.71,0,0,1,0,1.07,3,3,0,0,0,.46,2.18A10.93,10.93,0,0,0,305.49,51a2.65,2.65,0,0,0,1-1.63c0.07-.58.42-1.13,0.52-1.71,0.47-2.82,2.06-5,3.73-7.24,1.07-1.43,2.13-2.85,3.28-4.22,1.69-2,3.29-4.09,5.06-6.05,1.45-1.61,3.11-3,4.58-4.57A25.81,25.81,0,0,1,327.11,23a2.2,2.2,0,0,1,1.56-.23,1.12,1.12,0,0,1,1,.9,1.46,1.46,0,0,0,.57.65,2.61,2.61,0,0,1,1,2.19,1.06,1.06,0,0,1-.5,1.08,1.33,1.33,0,0,0-.88.82c-1.08.44-1.5,1.65-2.55,2.14a3.3,3.3,0,0,0-.77.73c-1.19,1.17-2.42,2.3-3.54,3.52-1.4,1.52-2.73,3.1-4,4.71a54.11,54.11,0,0,0-3.55,4.66c-1.12,1.73-2.6,3.31-2.87,5.52a1,1,0,0,0,1.37.33,10.25,10.25,0,0,1,6.82.85,10.6,10.6,0,0,1,2.31,1.71,3.76,3.76,0,0,1,.69,5,4.06,4.06,0,0,1-1.41,1.61,1.22,1.22,0,0,0-.4.35c-1,1.44-2.52,2.38-3.71,3.64A1.49,1.49,0,0,1,317,64a0.82,0.82,0,0,0-.43.47A4.48,4.48,0,0,1,313.94,67a1.59,1.59,0,0,1-1.06,0,8.32,8.32,0,0,1-2.12-1.26A4.88,4.88,0,0,1,310,64.21ZM295.54,41.92a2.38,2.38,0,0,0-.68.52A7.35,7.35,0,0,1,293.08,45a1.82,1.82,0,0,0-.25.48,40.8,40.8,0,0,1-2.48,4.13A11.23,11.23,0,0,0,288.76,53c-0.17.5-.36,1-0.53,1.5a2.05,2.05,0,0,0-.12,1.69A12.49,12.49,0,0,0,292.47,52c0.2-.29.47-0.53,0.69-0.82a5.76,5.76,0,0,0,.57-0.86c0.74-1.47,1.08-3.12,2-4.49a1.11,1.11,0,0,0,.13-0.69C295.81,44.12,295.68,43.1,295.54,41.92Z" transform="translate(0 0)"/><path class="4a2eab81-065e-496d-9011-e1bce6f7790a" d="M510.51,10.4a2.38,2.38,0,0,1-1.65,2c-0.55,1-1,1.75-1.44,2.5a63.41,63.41,0,0,1-4.19,5.56,4.08,4.08,0,0,0-.69,1,4.77,4.77,0,0,1-1.66,2.68,0.27,0.27,0,0,0-.1.15c-0.62,2.46-2.4,4.36-3.25,6.71a1.18,1.18,0,0,0,.14.45,9.51,9.51,0,0,0,3-.75,3.23,3.23,0,0,1,2.18-.6l1.45,1.13-0.11,1.86a4.36,4.36,0,0,0-1.2.65c-0.65.69-1.64,1-2.16,1.79a0.41,0.41,0,0,1-.29.19c-1.07-.36-1.65.91-2.64,0.77a12.63,12.63,0,0,1-3,1.48,3.39,3.39,0,0,0-1.59,1.9c-0.66,1.47-1.2,3-1.81,4.47-1,2.32-2,4.62-2.9,6.94-0.38.93-1,1.79-.84,2.89-0.83,1.28-.71,3.16-2.47,3.86a1.22,1.22,0,0,0-.43.55,20.15,20.15,0,0,1-1.44,2.67,3.7,3.7,0,0,0-.25,1.58l-1.48.27L480,62a10.68,10.68,0,0,1,.25-1.9c0.61-1.94,1.3-3.86,2-5.79,0.92-2.72,1.95-5.4,3-8.07,1.2-1.26,1-3.13,2-4.5a2.38,2.38,0,0,0,0-1.08,12.15,12.15,0,0,0-2.51.55,11.55,11.55,0,0,1-5.89.7,4.65,4.65,0,0,1-3.65-2.25,7.52,7.52,0,0,1-.62-1.48,6.93,6.93,0,0,1,2.08-2.34c1.21-.85,2.12-0.59,2.75.87,0,0.11.1,0.21,0.19,0.38a7.12,7.12,0,0,0,1,0c1.46-.2,2.86-0.8,4.37-0.61a0.7,0.7,0,0,0,.35,0c1.4-.62,2.8-1.27,4.21-1.88A3.61,3.61,0,0,0,491.17,33c0.46-.75.61-1.73,1.49-2.2a0.44,0.44,0,0,0,.14-0.32,5.32,5.32,0,0,1,1.38-3.06c1-1.12,1.08-2.74,2.34-3.62,0.32-1.5,1.32-2.65,2-4a5.42,5.42,0,0,1,1.77-2.45,1.34,1.34,0,0,0,.3-0.44c0.91-1.39,1.82-2.78,2.74-4.17a3.67,3.67,0,0,1,.8-1,5.63,5.63,0,0,0,1.65-2.38,3.25,3.25,0,0,1,.75-1.21,9.47,9.47,0,0,0,2-2.33,11.83,11.83,0,0,1,3.13-2.62A1.37,1.37,0,0,1,513,3.11a5.84,5.84,0,0,1,2.53,1.64,5.15,5.15,0,0,0,.71.8A2.61,2.61,0,0,1,517,8c-0.23,1.9-.59,3.78-0.9,5.67,0,0.06,0,.12,0,0.18C516,15,515.22,16,515.18,17.29a17.12,17.12,0,0,1-.73,3.31c-0.27,1.17-.48,2.35-0.83,3.5-0.46,1.55-1,3.06-1.54,4.6a6.94,6.94,0,0,0-.16.86c-0.14.7-.27,1.41-0.42,2.11a2.25,2.25,0,0,0-.22.84,1.64,1.64,0,0,1-.92,2.07,6.17,6.17,0,0,1-.34,3.6,15.28,15.28,0,0,0-.86,3.82,37.46,37.46,0,0,1-.88,4.21c-0.73,3.51-1.46,7-2.17,10.54a8,8,0,0,0,0,3,3.09,3.09,0,0,1,0,1.07,1.81,1.81,0,0,1-2.15,1.45A5.2,5.2,0,0,1,500.85,60a2.58,2.58,0,0,1-.28-1.38c0-1.61,0-3.23.11-4.84a2.91,2.91,0,0,1,.3-1.12c1.15-1.86,1.1-4,1.64-6,0.14-.51.38-1,0.54-1.5a4.69,4.69,0,0,0,.5-1.86,4.36,4.36,0,0,1,.36-2.06c0.3-.95.38-2,0.59-2.94,0.14-.64.35-1.26,0.55-1.89a7.42,7.42,0,0,0,.48-2.42,10.72,10.72,0,0,1,.72-3.13c0.27-.87.86-1.58,0.77-2.65-0.07-.89.57-1.82,0.7-2.76a25,25,0,0,1,1-4c0.27-.85.47-1.72,0.71-2.58,0-.17.09-0.35,0.16-0.52a4,4,0,0,0,.63-1.79c-0.16-.72.37-1.11,0.39-1.71a10.54,10.54,0,0,1,.41-1.92,3.58,3.58,0,0,1,.15-0.52C511.71,11.16,511.71,11.16,510.51,10.4Z" transform="translate(0 0)"/><path class="4a2eab81-065e-496d-9011-e1bce6f7790a" d="M270.37,34.55a14.7,14.7,0,0,0-2.8,5,3.34,3.34,0,0,0,2.4-1.47,3.11,3.11,0,0,1,.63-0.84,7.28,7.28,0,0,0,2.12-2.38,0.75,0.75,0,0,0,1.07-.56c0.22-1.28,1.32-1.62,2.27-2a2.14,2.14,0,0,1,2.28.71c0.65,0.61,1.39,1.14,2.08,1.71a1.93,1.93,0,0,1,.76,2.07c-0.3,1.08,0,2.28-.73,3.28a2.47,2.47,0,0,0-.1,1.06,9,9,0,0,1-.65,3,5,5,0,0,0-.29,1.73c-0.12,1.65-.7,3.27-0.29,5a3.41,3.41,0,0,1,0,1.25,3.78,3.78,0,0,0,.62,2.49,2.86,2.86,0,0,1,.45,1.81,2.64,2.64,0,0,0,.11.57l-1.08.78a15.66,15.66,0,0,1-2-1c-1.69-1.13-2.27-3-3.08-4.74a0.68,0.68,0,0,1,0-.36c0.24-2-.5-4,0-6.06a19.62,19.62,0,0,0,.34-3.56,3.5,3.5,0,0,0-.16-0.79,6.31,6.31,0,0,0-1.15.93,10.13,10.13,0,0,0-.42,1.12A9,9,0,0,1,271.57,45c-1.18,1.26-2.06,2.76-3.27,4a20,20,0,0,0-2.07,3.12,3.91,3.91,0,0,1-.84,1.14,8.48,8.48,0,0,0-2.55,3.59,4.56,4.56,0,0,0-.22.49A2.29,2.29,0,0,1,260.49,59a2.81,2.81,0,0,1-2.77-1.34,1.79,1.79,0,0,0-.24-0.47c-1.25-1-1-2.31-.6-3.58s0.39-3,1.29-4.25a14.27,14.27,0,0,1,1.56-5.1c0-1.48.87-2.7,1.19-4.1a11.83,11.83,0,0,1,1.12-2.43c0.78-1.59,1.59-3.16,2.36-4.75,0.36-.75.66-1.52,1-2.28a0.93,0.93,0,0,1,1.18-.54,5.1,5.1,0,0,1,.49.23c1.21,0.54,1.58,1.92,2.61,2.66A3.7,3.7,0,0,1,270.37,34.55Z" transform="translate(0 0)"/><path class="4a2eab81-065e-496d-9011-e1bce6f7790a" d="M522.65,30.27a1.29,1.29,0,0,1,.26,1.32c-0.84,1.79-1,3.82-1.91,5.59a8.74,8.74,0,0,0-.5,1.9c-0.53,2.08-1.1,4.16-1.6,6.25a47.36,47.36,0,0,1-1.06,4.91,30.09,30.09,0,0,0-1.11,6,32.08,32.08,0,0,0-.42,6.28c0.08,1.39-.14,2.73-0.14,4.1a2,2,0,0,1-2.79,1.59,9.4,9.4,0,0,1-2.17-1.57,3.1,3.1,0,0,1-.77-2.33c0-1.19.07-2.37,0.15-3.56s0.21-2.28.32-3.41a1.1,1.1,0,0,1,.05-0.36c0.76-1.6.65-3.38,1-5.06a3.74,3.74,0,0,1,.33-0.59,1.76,1.76,0,0,0,.25-0.79,8.44,8.44,0,0,1,.43-3.34c0.54-1.84,1.12-3.66,1.67-5.49a5.83,5.83,0,0,0,.14-0.89c0.08-.57.15-1.15,0.23-1.72,0.75-.29.22-0.95,0.4-1.39a5.16,5.16,0,0,1,.74-1A1.72,1.72,0,0,1,516.1,35c0.71-1.56,1.23-3.21,1.88-4.8,0.32-.79.76-1.54,1.15-2.31a1.27,1.27,0,0,0,.28-0.61c-0.39-1,.16-1.89.53-2.76a25.27,25.27,0,0,1,2.17-4.73,6.87,6.87,0,0,0,.58-1.5c0.92-2.47,2.1-4.82,3.21-7.21a5.9,5.9,0,0,0,.61-1.3,4.92,4.92,0,0,1,1.74-3.1c0.87-.23,1,0.74,1.45,1.18a1.32,1.32,0,0,1,.48,1.75,1.4,1.4,0,0,0,.22.8,5.21,5.21,0,0,1-.84,4.68,0.9,0.9,0,0,0-.37.74,2.39,2.39,0,0,1-.3,1c-0.85,2-1.72,4.08-2.57,6.12-0.64,1.53-1.26,3.06-1.9,4.59a14.52,14.52,0,0,0-.68,1.65A1.8,1.8,0,0,1,522.65,30.27Z" transform="translate(0 0)"/><path class="4a2eab81-065e-496d-9011-e1bce6f7790a" d="M532.12,29c1.24,1.07,2.39,1.91,2.38,3.57a1.26,1.26,0,0,0,.43.89,2.45,2.45,0,0,1,.74,2.93,17,17,0,0,1-1.16,3.2c-0.62,1.2-.59,2.55-1.06,3.78a5.45,5.45,0,0,1-.68,2,0.44,0.44,0,0,0-.11.33c0.33,1.44-.25,2.82-0.33,4.24-0.12,2.08-.45,4.15-0.68,6.23-0.09.83-.17,1.66-0.21,2.5-0.06,1.32-.48,1.75-1.79,1.61a3.59,3.59,0,0,1-3.07-2.67,9.65,9.65,0,0,1-.14-5,28.88,28.88,0,0,0,.63-4.36,1.21,1.21,0,0,1,.16-0.69,1.59,1.59,0,0,0,.21-1.68,1.65,1.65,0,0,1,.05-0.7,12.75,12.75,0,0,1,.63-3.46c1-2,1-4.28,2.16-6.18a5.51,5.51,0,0,0,.46-1.72c0.26-1.23.48-2.47,0.76-3.69A6,6,0,0,1,532.12,29Z" transform="translate(0 0)"/><path class="4a2eab81-065e-496d-9011-e1bce6f7790a" d="M590.15,61.06l1.14,1.14a2.77,2.77,0,0,0,3.92-3.92l-1.14-1.14a2.77,2.77,0,1,0-3.92,3.92h0Z" transform="translate(0 0)"/></svg>