<svg id="0e12babd-c431-44ba-9787-8b2231c7f4a7" data-name="Layer 1" xmlns="http://www.w3.org/2000/svg" width="300" height="1919.01" viewBox="0 0 300 1919.01"><defs><style>.\37 0f9d90f-67cc-4fde-9013-a3c33c498f68{fill:#fafafa;}.\31 9cdf156-b3a1-4ec0-b0a6-e91038b92028{opacity:0.1;}.\38 2acf5cc-ebef-41bd-a3e7-ed38cb4cb32c{fill:#333;}.\37 ce56d38-7caa-4640-80e8-c8f79b1324f5{fill:#326699;}.ab8ba716-5794-4909-bea5-c2dccec80301{fill:#221f1f;}.\35 c9b471d-afb1-46d0-9038-d94f7f293356{fill:#3a5a98;}.fede1aa0-dd68-47cf-9ccd-d22f6175c3b9{fill:#027bb5;}.\34 20e9525-ff17-4450-b59c-6edb9ba7c1fd{fill:#29a7df;}</style></defs><title>sprite</title><g id="4b289a52-1054-4f8c-a6ec-6c8ffad48dcf" data-name="&lt;Group&gt;"><g id="54d959cb-b7d3-42ba-b1f8-59974c45359b" data-name="&lt;Group&gt;"><path id="3ea2e7f5-776d-4b20-8490-fad3736cb2b8" data-name="&lt;Path&gt;" class="70f9d90f-67cc-4fde-9013-a3c33c498f68" d="M24.18,59.16H20V42.07a9,9,0,0,1,8.94-9H39.46v4.2H28.94a4.79,4.79,0,0,0-4.77,4.79V59.16Z"/></g><g id="71dd6b48-91d8-420c-98cf-9c5f710acdbc" data-name="&lt;Group&gt;"><path id="df4ee37e-3306-4643-a297-a459e5d73c82" data-name="&lt;Path&gt;" class="70f9d90f-67cc-4fde-9013-a3c33c498f68" d="M58.52,59.08H51a9.11,9.11,0,0,1-9.08-9.13V42.33A9.11,9.11,0,0,1,51,33.2h7.57v4.2H51a4.92,4.92,0,0,0-4.9,4.93v7.61A4.92,4.92,0,0,0,51,54.87h7.57a4.92,4.92,0,0,0,4.9-4.93V20H67.6V49.95A9.11,9.11,0,0,1,58.52,59.08Z"/></g><path id="b7a3dc71-63a1-4318-9d95-22d3b6682bdc" data-name="&lt;Path&gt;" class="70f9d90f-67cc-4fde-9013-a3c33c498f68" d="M93.82,45.1v4.84a4.92,4.92,0,0,1-4.9,4.93H81.36a4.92,4.92,0,0,1-4.9-4.93V42.33a4.92,4.92,0,0,1,4.9-4.93h7.57V33.2H81.36a9.11,9.11,0,0,0-9.08,9.13v7.61a9.11,9.11,0,0,0,9.08,9.13h7.57a9,9,0,0,0,4.9-1.46v3.16a5,5,0,0,1-5,5H78.52V70H88.83A9.21,9.21,0,0,0,98,60.78V45.1H93.82Z"/></g><g class="19cdf156-b3a1-4ec0-b0a6-e91038b92028"><path class="82acf5cc-ebef-41bd-a3e7-ed38cb4cb32c" d="M150.18,262.91H130.91a17.08,17.08,0,0,1-17-17.09V223.51h31.71v2.86h-3.79a2.51,2.51,0,0,0,0,5h6.3a2.51,2.51,0,0,0,2.5-2.51V221a2.51,2.51,0,0,0-2.5-2.51H111.37a2.51,2.51,0,0,0-2.5,2.51v24.82a22.1,22.1,0,0,0,22,22.12h14.17l-29.35,38a2.52,2.52,0,0,0,.44,3.53,2.5,2.5,0,0,0,3.51-.45L152.16,267A2.51,2.51,0,0,0,150.18,262.91Z"/><path class="82acf5cc-ebef-41bd-a3e7-ed38cb4cb32c" d="M69.08,219.22L41.84,246.56a2.52,2.52,0,0,0,0,3.55,2.5,2.5,0,0,0,3.54,0l27.24-27.34A2.51,2.51,0,0,0,69.08,219.22Z"/><path class="82acf5cc-ebef-41bd-a3e7-ed38cb4cb32c" d="M202,253.31L176.78,228a2.51,2.51,0,0,0-3.54,3.55l25.18,25.26a8.79,8.79,0,0,1,2.58,6.25v16.62a8.5,8.5,0,0,1-8.48,8.51H173.87a8.5,8.5,0,0,1-8.48-8.51V224a18.55,18.55,0,0,0-18.49-18.56H50.59A25.65,25.65,0,0,1,25,179.75V105h0.8A12.56,12.56,0,0,1,38.34,117.6v22.22a13,13,0,0,0,13,13h6.56a2.51,2.51,0,0,0,2.5-2.51V124.74h1.06A12.56,12.56,0,0,1,74,137.32v26.46a13,13,0,0,0,13,13h5.51a2.51,2.51,0,0,0,2.5-2.51V158.92h1.33a12.56,12.56,0,0,1,12.53,12.57v23.87a2.5,2.5,0,1,0,5,0V171.49a17.59,17.59,0,0,0-17.54-17.6H92.45a2.51,2.51,0,0,0-2.5,2.51v15.36h-3a8,8,0,0,1-8-8V137.32a17.59,17.59,0,0,0-17.54-17.6H57.87a2.51,2.51,0,0,0-2.5,2.51v25.58H51.31a8,8,0,0,1-8-8V117.6A17.59,17.59,0,0,0,25.81,100H22.5a2.51,2.51,0,0,0-2.5,2.51v77.24a30.67,30.67,0,0,0,30.59,30.69H146.9A13.52,13.52,0,0,1,160.39,224v55.75a13.52,13.52,0,0,0,13.49,13.53h18.64A13.52,13.52,0,0,0,206,279.73V263.11A13.79,13.79,0,0,0,202,253.31Z"/><path class="82acf5cc-ebef-41bd-a3e7-ed38cb4cb32c" d="M191.71,281.43a2.51,2.51,0,0,0,2.5-2.51v-9a10.69,10.69,0,0,0-10.66-10.7H175a2.51,2.51,0,0,0,0,5h8.54a5.67,5.67,0,0,1,5.65,5.67v9A2.51,2.51,0,0,0,191.71,281.43Z"/><path class="82acf5cc-ebef-41bd-a3e7-ed38cb4cb32c" d="M100.54,218.48H82.21A2.51,2.51,0,0,0,79.7,221v3.54a10,10,0,0,0,10,10h7.19a2.51,2.51,0,0,0,0-5H89.69a5,5,0,0,1-5-5v-1h15.83A2.51,2.51,0,0,0,100.54,218.48Z"/></g><path class="70f9d90f-67cc-4fde-9013-a3c33c498f68" d="M119.52,357.72l-8.85-7.42a1.3,1.3,0,0,0-1.68,0l-8.85,7.42a1.34,1.34,0,0,0-.17,1.87,1.3,1.3,0,0,0,1.85.18l6.7-5.61v46.77a8.38,8.38,0,0,1-8.32,8.42H97.34A8.38,8.38,0,0,1,89,400.92V361.08A11,11,0,0,0,78.07,350H75.21a11,11,0,0,0-10.95,11.08v39.85a8.38,8.38,0,0,1-8.32,8.42H53.08a8.38,8.38,0,0,1-8.32-8.42V361.08A11,11,0,0,0,33.81,350H30.95A11,11,0,0,0,20,361.08V398.8a1.31,1.31,0,1,0,2.63,0V361.08a8.38,8.38,0,0,1,8.32-8.42h2.87a8.38,8.38,0,0,1,8.32,8.42v39.85A11,11,0,0,0,53.08,412h2.87a11,11,0,0,0,10.95-11.08V361.08a8.38,8.38,0,0,1,8.32-8.42h2.87a8.38,8.38,0,0,1,8.32,8.42v39.85A11,11,0,0,0,97.34,412h2.87a11,11,0,0,0,10.95-11.08V354.16l6.7,5.62a1.3,1.3,0,0,0,1.85-.18A1.34,1.34,0,0,0,119.52,357.72Z"/><path class="70f9d90f-67cc-4fde-9013-a3c33c498f68" d="M98.77,400.21a1.32,1.32,0,0,0,1.31-1.33V380.47a1.31,1.31,0,1,0-2.63,0v18.41A1.32,1.32,0,0,0,98.77,400.21Z"/><path class="70f9d90f-67cc-4fde-9013-a3c33c498f68" d="M76.64,361.54a1.32,1.32,0,0,0-1.31,1.33v18.41a1.31,1.31,0,1,0,2.63,0V362.87A1.32,1.32,0,0,0,76.64,361.54Z"/><path class="70f9d90f-67cc-4fde-9013-a3c33c498f68" d="M32.38,361.54a1.32,1.32,0,0,0-1.31,1.33v18.41a1.31,1.31,0,1,0,2.63,0V362.87A1.32,1.32,0,0,0,32.38,361.54Z"/><path class="70f9d90f-67cc-4fde-9013-a3c33c498f68" d="M54.51,400.21a1.32,1.32,0,0,0,1.31-1.33V380.47a1.31,1.31,0,1,0-2.63,0v18.41A1.32,1.32,0,0,0,54.51,400.21Z"/><path class="70f9d90f-67cc-4fde-9013-a3c33c498f68" d="M81.26,511.26H31.59a8.76,8.76,0,0,1-8.81-8.69V461.43a8.76,8.76,0,0,1,8.81-8.69H82.11a5.79,5.79,0,0,1,5,2.16,5.61,5.61,0,0,1,.24,5.35L77.7,484.7a5.71,5.71,0,0,1-3.83,3.79,5.8,5.8,0,0,1-5.14-1.72l-8.66-7.83a12.25,12.25,0,0,0-16.64.38l-9.5,9.44a1.36,1.36,0,0,0,0,1.94,1.4,1.4,0,0,0,2,0l9.5-9.44a9.41,9.41,0,0,1,12.78-.3l8.66,7.83a8.5,8.5,0,0,0,7.65,2.37,8.38,8.38,0,0,0,5.8-5.47l9.62-24.45a8.22,8.22,0,0,0-.54-7.9c-1.5-2.16-4.08-3.35-7.27-3.35H31.59A11.53,11.53,0,0,0,20,461.43v41.13A11.53,11.53,0,0,0,31.59,514H81.26A1.37,1.37,0,1,0,81.26,511.26Z"/><path class="70f9d90f-67cc-4fde-9013-a3c33c498f68" d="M118.88,455a10.17,10.17,0,0,0-5-3.9l-1.27-.48a8.86,8.86,0,0,0-6.74.17,8.68,8.68,0,0,0-4.66,4.81l-4.38,11.17h0L86.2,493.95a7.72,7.72,0,0,0,.09,5.27L89,505.56a3.59,3.59,0,0,0,.84,1.2L88,511.41a1.37,1.37,0,0,0,.8,1.77,1.41,1.41,0,0,0,.5.09,1.39,1.39,0,0,0,1.3-.88l1.83-4.66a3.69,3.69,0,0,0,1.44-.32l6.35-2.88a7.87,7.87,0,0,0,3.66-3.84l11.44-29.2a1.37,1.37,0,0,0-.8-1.77,1.4,1.4,0,0,0-1.8.79l-11.44,29.2A5.19,5.19,0,0,1,99.09,502l-6.35,2.88a0.87,0.87,0,0,1-.67,0,0.85,0.85,0,0,1-.48-0.46l-2.73-6.34a5.09,5.09,0,0,1-.05-3.21l8.71-22.22h0l6.33-16.14a5.94,5.94,0,0,1,3.19-3.29,6.06,6.06,0,0,1,4.61-.12l1.27,0.48a7.49,7.49,0,0,1,3.63,2.81,3.47,3.47,0,0,1,.51,3.14l-1.49,3.8L108,460.54a1.4,1.4,0,0,0-1.8.79,1.37,1.37,0,0,0,.8,1.77l8.82,3.36a1.41,1.41,0,0,0,.5.09,1.39,1.39,0,0,0,1.3-.88h0l2-5.08A6.1,6.1,0,0,0,118.88,455Z"/><path class="70f9d90f-67cc-4fde-9013-a3c33c498f68" d="M118.72,621.37h-3V571a6.4,6.4,0,0,0-6.41-6.38H96.62a7.81,7.81,0,0,0-14.23,0H30.69A6.4,6.4,0,0,0,24.28,571v50.39h-3a1.28,1.28,0,1,0,0,2.55h54l0,0.13a3.28,3.28,0,0,0,.8,2.64A4.07,4.07,0,0,0,79.16,628h2.35A4.36,4.36,0,0,0,86,624.31l0-.39h7l0,0.39A4.36,4.36,0,0,0,97.49,628h2.35a4.07,4.07,0,0,0,3.09-1.31,3.28,3.28,0,0,0,.8-2.64l0-.13h15A1.28,1.28,0,1,0,118.72,621.37ZM89.5,562.55a5.22,5.22,0,1,1-5.24,5.22A5.24,5.24,0,0,1,89.5,562.55ZM59.41,621.37H40.62v-23a3.84,3.84,0,0,1,3.85-3.83h11.1a3.84,3.84,0,0,1,3.85,3.83v23Zm26.79,0,1-11.59a1.83,1.83,0,0,1,1.89-1.35h0.89a1.83,1.83,0,0,1,1.89,1.35l1,11.59H86.2ZM101,625a1.52,1.52,0,0,1-1.16.44H97.49a1.83,1.83,0,0,1-1.89-1.35l-1.22-14.53a4.36,4.36,0,0,0-4.44-3.69H89.06a4.36,4.36,0,0,0-4.44,3.69L83.4,624.1a1.83,1.83,0,0,1-1.89,1.35H79.16A1.52,1.52,0,0,1,78,625a0.75,0.75,0,0,1-.19-0.62l5-36.63a1.28,1.28,0,0,0-2.54-.34L78.5,600.27l-2.89-.07a1.72,1.72,0,0,1-1.27-.48,0.41,0.41,0,0,1-.11-0.35L77,582.23a2.1,2.1,0,0,1,2.08-1.17H99.94a2.1,2.1,0,0,1,2.08,1.17l2.76,17.14a0.41,0.41,0,0,1-.11.35,1.72,1.72,0,0,1-1.27.48l-2.89.07-1.75-12.86a1.28,1.28,0,0,0-2.54.34l5,36.63A0.75,0.75,0,0,1,101,625Zm-0.16-22.19,2.6-.06a4.23,4.23,0,0,0,3.18-1.4,3,3,0,0,0,.67-2.39l-2.76-17.14c-0.3-1.86-2.32-3.32-4.61-3.32H79.07c-2.29,0-4.31,1.46-4.61,3.32L71.7,599a3,3,0,0,0,.67,2.39,4.23,4.23,0,0,0,3.18,1.4l2.6,0.06-2.52,18.55H62v-23A6.4,6.4,0,0,0,55.57,592H44.47a6.4,6.4,0,0,0-6.41,6.38v23H26.84V571a3.84,3.84,0,0,1,3.85-3.83h51c0,0.21,0,.42,0,0.63a7.81,7.81,0,0,0,15.61,0c0-.21,0-0.42,0-0.63h12a3.84,3.84,0,0,1,3.85,3.83v50.39h-9.79Z"/><path class="70f9d90f-67cc-4fde-9013-a3c33c498f68" d="M113.24,668.16h-9.46V666.8A6.79,6.79,0,0,0,97,660H26.76A6.79,6.79,0,0,0,20,666.8V709a6.79,6.79,0,0,0,6.76,6.8H55.14a1.72,1.72,0,0,1,.4.05,0.76,0.76,0,0,1-.11.41l-1.64,3.29a3.46,3.46,0,0,1-2.7,1.68H41.62a1.36,1.36,0,0,0,0,2.72h9.46a6.18,6.18,0,0,0,5.12-3.18l1.64-3.29a3.1,3.1,0,0,0,0-3,3.05,3.05,0,0,0-2.7-1.36H26.76A4.07,4.07,0,0,1,22.7,709V666.8a4.07,4.07,0,0,1,4.05-4.08H97a4.07,4.07,0,0,1,4.05,4.08v1.36H91.62a6.79,6.79,0,0,0-6.76,6.8v9.52H83.51a6.79,6.79,0,0,0-6.76,6.8V713H72.7A3.05,3.05,0,0,0,70,714.4a3.1,3.1,0,0,0,0,3l1.64,3.29a5.58,5.58,0,0,0,4.44,3.18h1.24A6.76,6.76,0,0,0,83.51,728H93a6.76,6.76,0,0,0,6.19-4.08h14.08a6.79,6.79,0,0,0,6.76-6.8V675A6.79,6.79,0,0,0,113.24,668.16Zm-37.16,53a3.08,3.08,0,0,1-2-1.68l-1.64-3.29a1.63,1.63,0,0,1-.13-0.38,0.74,0.74,0,0,1,.42-0.08h4.05v5.44H76.08ZM93,725.28H83.51a4.07,4.07,0,0,1-4.05-4.08V691.28a4.07,4.07,0,0,1,4.05-4.08H93A4.07,4.07,0,0,1,97,691.28V721.2A4.07,4.07,0,0,1,93,725.28Zm24.32-8.16a4.07,4.07,0,0,1-4.05,4.08H99.73v-5.44h4.73a1.36,1.36,0,0,0,0-2.72H99.73V691.28a6.79,6.79,0,0,0-6.76-6.8H87.57V675a4.07,4.07,0,0,1,4.05-4.08h10.65l0.08,0,0.08,0h10.81A4.07,4.07,0,0,1,117.3,675v42.16Z"/><path class="70f9d90f-67cc-4fde-9013-a3c33c498f68" d="M90.94,717.12h-5.4a1.36,1.36,0,0,0,0,2.72h5.4A1.36,1.36,0,0,0,90.94,717.12Z"/><path class="70f9d90f-67cc-4fde-9013-a3c33c498f68" d="M251.75,354l-4.6-3.83a0.68,0.68,0,0,0-.87,0l-4.6,3.83a0.69,0.69,0,0,0-.09,1,0.68,0.68,0,0,0,1,.09l3.48-2.9v24.14a4.34,4.34,0,0,1-4.33,4.34h-1.49a4.34,4.34,0,0,1-4.33-4.34V355.72A5.71,5.71,0,0,0,230.2,350h-1.49a5.71,5.71,0,0,0-5.69,5.72v20.57a4.34,4.34,0,0,1-4.33,4.34H217.2a4.34,4.34,0,0,1-4.33-4.34V355.72a5.71,5.71,0,0,0-5.69-5.72h-1.49a5.71,5.71,0,0,0-5.69,5.72v19.47a0.68,0.68,0,1,0,1.37,0V355.72a4.34,4.34,0,0,1,4.33-4.34h1.49a4.34,4.34,0,0,1,4.33,4.34v20.57A5.71,5.71,0,0,0,217.2,382h1.49a5.71,5.71,0,0,0,5.69-5.72V355.72a4.34,4.34,0,0,1,4.33-4.34h1.49a4.34,4.34,0,0,1,4.33,4.34v20.57a5.71,5.71,0,0,0,5.69,5.72h1.49a5.71,5.71,0,0,0,5.69-5.72V352.14l3.48,2.9a0.68,0.68,0,0,0,1-.09A0.69,0.69,0,0,0,251.75,354Z"/><path class="70f9d90f-67cc-4fde-9013-a3c33c498f68" d="M241,375.91a0.68,0.68,0,0,0,.68-0.69v-9.5a0.68,0.68,0,1,0-1.37,0v9.5A0.68,0.68,0,0,0,241,375.91Z"/><path class="70f9d90f-67cc-4fde-9013-a3c33c498f68" d="M229.45,356a0.68,0.68,0,0,0-.68.69v9.5a0.68,0.68,0,1,0,1.37,0v-9.5A0.68,0.68,0,0,0,229.45,356Z"/><path class="70f9d90f-67cc-4fde-9013-a3c33c498f68" d="M206.44,356a0.68,0.68,0,0,0-.68.69v9.5a0.68,0.68,0,1,0,1.37,0v-9.5A0.68,0.68,0,0,0,206.44,356Z"/><path class="70f9d90f-67cc-4fde-9013-a3c33c498f68" d="M217.94,375.91a0.68,0.68,0,0,0,.68-0.69v-9.5a0.68,0.68,0,1,0-1.37,0v9.5A0.68,0.68,0,0,0,217.94,375.91Z"/><path class="70f9d90f-67cc-4fde-9013-a3c33c498f68" d="M231.85,482.54H206a4.6,4.6,0,0,1-4.58-4.62V456.07a4.6,4.6,0,0,1,4.58-4.62H232.3a3,3,0,0,1,2.59,1.15,3,3,0,0,1,.13,2.84l-5,13a2.66,2.66,0,0,1-4.67,1.1l-4.51-4.16a6.27,6.27,0,0,0-8.65.2l-4.94,5a0.73,0.73,0,0,0,0,1,0.72,0.72,0,0,0,1,0l4.94-5a4.82,4.82,0,0,1,6.65-.16l4.51,4.16a4.09,4.09,0,0,0,7-1.64l5-13a4.45,4.45,0,0,0-.28-4.19A4.37,4.37,0,0,0,232.3,450H206a6.06,6.06,0,0,0-6,6.07v21.85a6.06,6.06,0,0,0,6,6.07h25.82A0.73,0.73,0,0,0,231.85,482.54Z"/><path class="70f9d90f-67cc-4fde-9013-a3c33c498f68" d="M251.42,452.66a5.31,5.31,0,0,0-2.59-2.07l-0.66-.26a4.52,4.52,0,0,0-3.5.09,4.57,4.57,0,0,0-2.42,2.55L240,458.9h0l-5.54,14.45a4.18,4.18,0,0,0,0,2.8l1.42,3.37a1.91,1.91,0,0,0,.44.64l-0.95,2.47a0.73,0.73,0,0,0,.41.94,0.72,0.72,0,0,0,.94-0.42l1-2.48a1.88,1.88,0,0,0,.75-0.17l3.3-1.53a4.14,4.14,0,0,0,1.9-2l5.95-15.51a0.73,0.73,0,0,0-.41-0.94,0.72,0.72,0,0,0-.94.42l-5.95,15.51a2.73,2.73,0,0,1-1.16,1.24l-3.3,1.53a0.44,0.44,0,0,1-.6-0.23l-1.42-3.37a2.76,2.76,0,0,1,0-1.7l4.53-11.8h0l3.29-8.58a3.13,3.13,0,0,1,1.66-1.75,3.09,3.09,0,0,1,2.4-.06l0.66,0.26a3.91,3.91,0,0,1,1.89,1.49,1.88,1.88,0,0,1,.26,1.67l-0.78,2-3.91-1.52a0.72,0.72,0,0,0-.94.42,0.73,0.73,0,0,0,.41.94l4.59,1.79a0.72,0.72,0,0,0,.94-0.42h0l1-2.7A3.3,3.3,0,0,0,251.42,452.66Z"/><path class="70f9d90f-67cc-4fde-9013-a3c33c498f68" d="M251.33,592.49h-1.56V565.81a3.36,3.36,0,0,0-3.33-3.38h-6.6a4,4,0,0,0-7.4,0H205.56a3.36,3.36,0,0,0-3.33,3.38v26.68h-1.56a0.68,0.68,0,0,0,0,1.35h28.08v0.07a1.76,1.76,0,0,0,.42,1.4,2.1,2.1,0,0,0,1.6.7H232a2.28,2.28,0,0,0,2.31-2l0-.21H238l0,0.21a2.28,2.28,0,0,0,2.31,2h1.22a2.1,2.1,0,0,0,1.6-.7,1.76,1.76,0,0,0,.42-1.4v-0.07h7.8A0.68,0.68,0,0,0,251.33,592.49Zm-15.19-31.14a2.76,2.76,0,1,1-2.73,2.76A2.75,2.75,0,0,1,236.14,561.35Zm-15.65,31.14h-9.77V580.3a2,2,0,0,1,2-2h5.77a2,2,0,0,1,2,2v12.18Zm13.93,0,0.5-6.13a1,1,0,0,1,1-.71h0.46a1,1,0,0,1,1,.71l0.5,6.13h-3.43Zm7.7,1.93a0.78,0.78,0,0,1-.6.23H240.3a1,1,0,0,1-1-.71l-0.63-7.69a2.28,2.28,0,0,0-2.31-2h-0.46a2.28,2.28,0,0,0-2.31,2L233,593.93a1,1,0,0,1-1,.71h-1.22a0.78,0.78,0,0,1-.6-0.23,0.4,0.4,0,0,1-.1-0.33l2.59-19.39a0.67,0.67,0,1,0-1.32-.18l-0.91,6.81-1.5,0a0.89,0.89,0,0,1-.66-0.25,0.22,0.22,0,0,1-.06-0.19l1.43-9.07a1.09,1.09,0,0,1,1.08-.62h10.85a1.09,1.09,0,0,1,1.08.62l1.43,9.07a0.22,0.22,0,0,1-.06.19,0.89,0.89,0,0,1-.66.25l-1.5,0L241,574.51a0.67,0.67,0,1,0-1.32.18l2.59,19.39A0.4,0.4,0,0,1,242.12,594.42ZM242,582.67l1.35,0a2.18,2.18,0,0,0,1.65-.74,1.58,1.58,0,0,0,.35-1.27L244,571.55a2.35,2.35,0,0,0-2.4-1.76H230.71a2.35,2.35,0,0,0-2.4,1.76l-1.43,9.08a1.58,1.58,0,0,0,.35,1.26,2.18,2.18,0,0,0,1.65.74l1.35,0-1.31,9.82h-7.1V580.3a3.36,3.36,0,0,0-3.33-3.38h-5.77a3.36,3.36,0,0,0-3.33,3.38v12.18h-5.83V565.81a2,2,0,0,1,2-2H232.1c0,0.11,0,.22,0,0.33a4.06,4.06,0,1,0,8.12,0c0-.11,0-0.22,0-0.33h6.26a2,2,0,0,1,2,2v26.68h-5.09Z"/><path class="70f9d90f-67cc-4fde-9013-a3c33c498f68" d="M248.49,664.32h-4.92V663.6a3.56,3.56,0,0,0-3.51-3.6H203.51a3.56,3.56,0,0,0-3.51,3.6v22.32a3.56,3.56,0,0,0,3.51,3.6h14.76a0.88,0.88,0,0,1,.21,0,0.41,0.41,0,0,1-.06.22l-0.85,1.74a1.8,1.8,0,0,1-1.41.89h-4.92a0.72,0.72,0,0,0,0,1.44h4.92a3.21,3.21,0,0,0,2.66-1.69l0.85-1.74a1.67,1.67,0,0,0,0-1.61,1.58,1.58,0,0,0-1.41-.72H203.51a2.14,2.14,0,0,1-2.11-2.16V663.6a2.14,2.14,0,0,1,2.11-2.16h36.54a2.14,2.14,0,0,1,2.11,2.16v0.72h-4.92a3.56,3.56,0,0,0-3.51,3.6v5H233a3.56,3.56,0,0,0-3.51,3.6v11.52h-2.11a1.58,1.58,0,0,0-1.41.72,1.67,1.67,0,0,0,0,1.61l0.85,1.74a2.9,2.9,0,0,0,2.31,1.69h0.65A3.52,3.52,0,0,0,233,696h4.92a3.52,3.52,0,0,0,3.22-2.16h7.32a3.56,3.56,0,0,0,3.51-3.6V667.92A3.56,3.56,0,0,0,248.49,664.32ZM229.16,692.4a1.61,1.61,0,0,1-1.05-.89l-0.85-1.74a0.87,0.87,0,0,1-.07-0.2,0.38,0.38,0,0,1,.22,0h2.11v2.88h-0.35Zm8.78,2.16H233a2.14,2.14,0,0,1-2.11-2.16V676.56A2.14,2.14,0,0,1,233,674.4h4.92a2.14,2.14,0,0,1,2.11,2.16V692.4A2.14,2.14,0,0,1,237.95,694.56Zm12.65-4.32a2.14,2.14,0,0,1-2.11,2.16h-7v-2.88h2.46a0.72,0.72,0,0,0,0-1.44h-2.46V676.56a3.56,3.56,0,0,0-3.51-3.6h-2.81v-5a2.14,2.14,0,0,1,2.11-2.16h11.24a2.14,2.14,0,0,1,2.11,2.16v22.32Z"/><path class="70f9d90f-67cc-4fde-9013-a3c33c498f68" d="M236.89,690.24h-2.81a0.72,0.72,0,0,0,0,1.44h2.81A0.72,0.72,0,0,0,236.89,690.24Z"/><path class="70f9d90f-67cc-4fde-9013-a3c33c498f68" d="M22.29,792a2.14,2.14,0,0,1-1.06-.27A2.75,2.75,0,0,1,20,789.21V772.79a2.75,2.75,0,0,1,1.23-2.52,2.63,2.63,0,0,1,2.74.27l12.54,8h0a2.74,2.74,0,0,1,0,4.86l-12.54,8A3.15,3.15,0,0,1,22.29,792Zm0-20a0.25,0.25,0,0,0-.12,0,1,1,0,0,0-.23.77v16.42a1,1,0,0,0,.23.77,0.92,0.92,0,0,0,.76-0.22l12.54-8a0.77,0.77,0,0,0,0-1.49l-12.54-8A1.3,1.3,0,0,0,22.3,772Z"/><path class="70f9d90f-67cc-4fde-9013-a3c33c498f68" d="M35.71,900a2.14,2.14,0,0,1,1.06.27A2.75,2.75,0,0,1,38,902.79v16.42a2.75,2.75,0,0,1-1.23,2.52,2.63,2.63,0,0,1-2.74-.27l-12.54-8h0a2.74,2.74,0,0,1,0-4.86l12.54-8A3.15,3.15,0,0,1,35.71,900Zm0,20a0.25,0.25,0,0,0,.12,0,1,1,0,0,0,.23-0.77V902.79a1,1,0,0,0-.23-0.77,0.92,0.92,0,0,0-.76.22l-12.54,8a0.77,0.77,0,0,0,0,1.49l12.54,8A1.3,1.3,0,0,0,35.7,920Z"/><path class="70f9d90f-67cc-4fde-9013-a3c33c498f68" d="M42,855.71a2.14,2.14,0,0,1-.27,1.06A2.75,2.75,0,0,1,39.21,858H22.79a2.75,2.75,0,0,1-2.52-1.23,2.63,2.63,0,0,1,.27-2.74l8-12.54h0a2.74,2.74,0,0,1,4.86,0l8,12.54A3.15,3.15,0,0,1,42,855.71Zm-20,0a0.25,0.25,0,0,0,0,.12,1,1,0,0,0,.77.23H39.21a1,1,0,0,0,.77-0.23,0.92,0.92,0,0,0-.22-0.76l-8-12.54A1,1,0,0,0,31,842a1,1,0,0,0-.74.57l-8,12.54A1.3,1.3,0,0,0,22,855.7Z"/><path class="70f9d90f-67cc-4fde-9013-a3c33c498f68" d="M96.85,779.26a1.9,1.9,0,0,1,0,3.49l-14.07,8.82c-1.53,1-2.78.27-2.78-1.54V772c0-1.81,1.25-2.5,2.78-1.54Z"/><path class="70f9d90f-67cc-4fde-9013-a3c33c498f68" d="M81.15,912.74a1.9,1.9,0,0,1,0-3.49l14.07-8.82c1.53-1,2.78-.27,2.78,1.54V920c0,1.81-1.25,2.5-2.78,1.54Z"/><path class="70f9d90f-67cc-4fde-9013-a3c33c498f68" d="M89.26,841.15a1.9,1.9,0,0,1,3.49,0l8.82,14.07c1,1.53.27,2.78-1.54,2.78H82c-1.81,0-2.5-1.25-1.54-2.78Z"/><rect class="70f9d90f-67cc-4fde-9013-a3c33c498f68" x="20" y="977.6" width="36" height="4.4"/><rect class="70f9d90f-67cc-4fde-9013-a3c33c498f68" x="20" y="968.8" width="36" height="4.4"/><rect class="70f9d90f-67cc-4fde-9013-a3c33c498f68" x="20" y="960" width="36" height="4.4"/><polygon class="70f9d90f-67cc-4fde-9013-a3c33c498f68" points="102 979.6 93.39 970.98 101.96 962.4 99.57 960 91 968.59 82.43 960 80.04 962.4 88.61 970.98 80 979.6 82.39 982 91 973.38 99.61 982 102 979.6"/><rect class="7ce56d38-7caa-4640-80e8-c8f79b1324f5" x="20.05" y="1120.05" width="49.9" height="49.9"/><polygon class="ab8ba716-5794-4909-bea5-c2dccec80301" points="20.05 1169.95 20.05 1170 70 1170 70 1120 20 1120 20 1170 20.05 1170 20.05 1169.95 20.1 1169.95 20.1 1120.1 69.9 1120.1 69.9 1169.9 20.05 1169.9 20.05 1169.95 20.1 1169.95 20.05 1169.95"/><path class="70f9d90f-67cc-4fde-9013-a3c33c498f68" d="M32.79,1128.57H57.22a4.23,4.23,0,0,1,4.22,4.22v24.43a4.23,4.23,0,0,1-4.22,4.22H32.79a4.23,4.23,0,0,1-4.22-4.22v-24.43A4.23,4.23,0,0,1,32.79,1128.57Zm19.72,3.65A1.48,1.48,0,0,0,51,1133.7v3.54a1.48,1.48,0,0,0,1.48,1.48h3.71a1.48,1.48,0,0,0,1.48-1.48v-3.54a1.49,1.49,0,0,0-1.48-1.48H52.51Zm5.21,10.25H54.83a9.61,9.61,0,0,1,.42,2.82,10.22,10.22,0,0,1-20.43,0,9.65,9.65,0,0,1,.42-2.82h-3v13.88a1.31,1.31,0,0,0,1.31,1.3H56.41a1.31,1.31,0,0,0,1.31-1.3v-13.88ZM45,1138.53a6.4,6.4,0,1,0,6.6,6.4A6.5,6.5,0,0,0,45,1138.53Z"/><rect class="5c9b471d-afb1-46d0-9038-d94f7f293356" x="20" y="1300" width="50" height="50"/><path class="70f9d90f-67cc-4fde-9013-a3c33c498f68" d="M63.61,1329.93l1-7.65H57v-4.89c0-2.22.62-3.73,3.79-3.73h4v-6.84a54,54,0,0,0-5.9-.3c-5.84,0-9.84,3.57-9.84,10.12v5.64H42.5v7.65h6.61v19.64H57v-19.64h6.59Z"/><rect class="fede1aa0-dd68-47cf-9ccd-d22f6175c3b9" x="20" y="1030" width="50" height="50"/><path class="70f9d90f-67cc-4fde-9013-a3c33c498f68" d="M28.56,1049.3h7.05V1072H28.56V1049.3ZM32.09,1038a4.08,4.08,0,1,1-4.09,4.08,4.09,4.09,0,0,1,4.09-4.08"/><path class="70f9d90f-67cc-4fde-9013-a3c33c498f68" d="M40,1049.3h6.76v3.1h0.1a7.4,7.4,0,0,1,6.67-3.66c7.13,0,8.45,4.69,8.45,10.8V1072H55v-11c0-2.63-.05-6-3.66-6s-4.23,2.86-4.23,5.82V1072H40V1049.3Z"/><rect class="420e9525-ff17-4450-b59c-6edb9ba7c1fd" x="20" y="1210" width="50" height="50"/><path class="70f9d90f-67cc-4fde-9013-a3c33c498f68" d="M61.67,1224.66a13.66,13.66,0,0,1-3.93,1.08,6.85,6.85,0,0,0,3-3.78,13.67,13.67,0,0,1-4.34,1.66,6.85,6.85,0,0,0-11.66,6.24,19.41,19.41,0,0,1-14.1-7.15,6.85,6.85,0,0,0,2.12,9.13,6.81,6.81,0,0,1-3.1-.86v0.09a6.84,6.84,0,0,0,5.49,6.71,6.88,6.88,0,0,1-1.8.24,6.79,6.79,0,0,1-1.29-.12,6.85,6.85,0,0,0,6.39,4.75,13.72,13.72,0,0,1-8.49,2.93,14.11,14.11,0,0,1-1.63-.1,19.37,19.37,0,0,0,10.48,3.07c12.58,0,19.46-10.42,19.46-19.46,0-.3,0-0.59,0-0.89A13.93,13.93,0,0,0,61.67,1224.66Z"/><ellipse class="70f9d90f-67cc-4fde-9013-a3c33c498f68" cx="40.81" cy="1491.43" rx="5.5" ry="5.33"/><path class="70f9d90f-67cc-4fde-9013-a3c33c498f68" d="M47,1486h3.1c0.68,0,1.94-.3,1.94-1v-3a3,3,0,0,0-1.94-2.07H47c-0.68,0-1,1.39-1,2.07v3A0.84,0.84,0,0,0,47,1486Z"/><path class="70f9d90f-67cc-4fde-9013-a3c33c498f68" d="M49.32,1491.54a8.52,8.52,0,0,1-17,0c0-.82.12-2.49,0.35-2.49H30.08v12a1.11,1.11,0,0,0,1.14,1H50.29c0.6,0,1.78-.45,1.78-1v-12H49C49.2,1489,49.32,1490.72,49.32,1491.54Z"/><path class="70f9d90f-67cc-4fde-9013-a3c33c498f68" d="M20.08,1470v42h42v-42h-42Zm35,31.49a3.52,3.52,0,0,1-3.52,3.51h-21a3.52,3.52,0,0,1-3.52-3.51v-21a3.52,3.52,0,0,1,3.52-3.51h21a3.52,3.52,0,0,1,3.52,3.51v21Z"/><path class="70f9d90f-67cc-4fde-9013-a3c33c498f68" d="M20.08,1620v42h42v-42h-42Zm38,11.56H54.47c-2.71,0-3.39,1.26-3.39,3.11V1639h7l-0.84,7H51.08v16h-7v-16h-5v-7h5v-5c0-5.46,3.69-8.43,8.68-8.43a43.9,43.9,0,0,1,5.32.25v5.71Z"/><path class="70f9d90f-67cc-4fde-9013-a3c33c498f68" d="M20.08,1550v42h42v-42h-42Zm32.76,15.84c0,0.25,0,.49,0,0.74a16.31,16.31,0,0,1-16.62,16.24,16.84,16.84,0,0,1-9-2.56,12.3,12.3,0,0,0,1.39.08,11.9,11.9,0,0,0,7.26-2.44,5.83,5.83,0,0,1-5.46-4,5.93,5.93,0,0,0,1.1.1,4.77,4.77,0,0,0,1.37-.2,5.9,5.9,0,0,1-4.86-5.6v-0.07c0,0.43,1.86.69,2.81,0.71a5.61,5.61,0,0,1-1.68-7.62,16.76,16.76,0,0,0,12.06,6,5.62,5.62,0,0,1-.14-1.3,5.78,5.78,0,0,1,5.85-5.71,5.91,5.91,0,0,1,4.27,1.8,11.85,11.85,0,0,0,3.71-1.39,5.74,5.74,0,0,1-2.57,3.16,11.89,11.89,0,0,0,3.36-.9A11.75,11.75,0,0,1,52.83,1565.84Z"/><path class="70f9d90f-67cc-4fde-9013-a3c33c498f68" d="M20.08,1690v42h42v-42h-42Zm21.21,7.2a10.78,10.78,0,0,1,.91,1.44,9.19,9.19,0,0,1,.76,1.69,7.83,7.83,0,0,1,.27,2.18,6.3,6.3,0,0,1-1,3.58,11.28,11.28,0,0,1-1,1.2c-0.38.36-.79,0.74-1.22,1.12a5.71,5.71,0,0,0-.68.87,1.93,1.93,0,0,0-.37,1.17,1.54,1.54,0,0,0,.38,1.07,8.19,8.19,0,0,0,.63.71l1.4,1.15a14.15,14.15,0,0,1,2.29,2.36,6,6,0,0,1,1,3.43,6.92,6.92,0,0,1-2.65,5.32q-2.75,2.4-7.94,2.48-4.34,0-6.48-1.85a5,5,0,0,1-2.16-4,5.79,5.79,0,0,1,.7-2.56,6.05,6.05,0,0,1,2.47-2.47,12.88,12.88,0,0,1,4.22-1.53,32.08,32.08,0,0,1,3.63-.36,8.88,8.88,0,0,1-.8-1.26,2.87,2.87,0,0,1-.41-1.56,2.34,2.34,0,0,1,.15-0.91l0.25-.71a11.8,11.8,0,0,1-1.33.08,6.35,6.35,0,0,1-5-2.08,6.19,6.19,0,0,1-1.81-4.41,7.53,7.53,0,0,1,2.57-5.52,9.71,9.71,0,0,1,3.66-2.14,19.09,19.09,0,0,1,3.52-.63h8.26L43,1696H40.41A1.59,1.59,0,0,0,41.29,1697.2Zm15.79,4.8h-4v4h-3v-4h-4v-3h4v-4h3v4h4v3Z"/><path class="70f9d90f-67cc-4fde-9013-a3c33c498f68" d="M36.66,1715.27a10.88,10.88,0,0,0-1.62.08,17.84,17.84,0,0,0-2.63.58l-0.89.36a5.44,5.44,0,0,0-1.17.75,4.33,4.33,0,0,0-1,1.25,3.72,3.72,0,0,0-.45,1.9,4.25,4.25,0,0,0,2,3.59,8.54,8.54,0,0,0,5.13,1.45,7.09,7.09,0,0,0,4.46-1.29,3.91,3.91,0,0,0,1.5-3.17,4,4,0,0,0-1-2.74,25.07,25.07,0,0,0-3.39-2.72A9.06,9.06,0,0,0,36.66,1715.27Z"/><path class="70f9d90f-67cc-4fde-9013-a3c33c498f68" d="M36.94,1697.61a4,4,0,0,0-2.25-.75,3.64,3.64,0,0,0-2.79,1.35,5.08,5.08,0,0,0-.9,3.07,9.8,9.8,0,0,0,1.31,4.66,6.38,6.38,0,0,0,1.64,1.92,3.61,3.61,0,0,0,2.3.79,3.86,3.86,0,0,0,2.72-1.17,4.26,4.26,0,0,0,.67-1.62,13.39,13.39,0,0,0,.09-1.39,10.89,10.89,0,0,0-1.25-4.93A5.5,5.5,0,0,0,36.94,1697.61Z"/><path class="70f9d90f-67cc-4fde-9013-a3c33c498f68" d="M20.08,1390v42h42v-42h-42Zm13,36h-6v-20h6v20Zm-2.42-21.84a3.4,3.4,0,1,1,3.4-3.41A3.41,3.41,0,0,1,30.66,1404.16ZM55.08,1426h-5v-9.55c0-2.19-.25-5-3.27-5s-3.73,2.39-3.73,4.85V1426h-6v-20h6v3H43c0.78-2,2.44-2.89,5.3-2.89,5.94,0,6.78,4.07,6.78,9.16V1426Z"/></svg>